<?xml version="1.0" encoding="utf-8" standalone="no"?>
<!DOCTYPE svg PUBLIC "-//W3C//DTD SVG 1.1//EN"
  "http://www.w3.org/Graphics/SVG/1.1/DTD/svg11.dtd">
<svg xmlns:xlink="http://www.w3.org/1999/xlink" width="864pt" height="288pt" viewBox="0 0 864 288" xmlns="http://www.w3.org/2000/svg" version="1.1">
 <metadata>
  <rdf:RDF xmlns:dc="http://purl.org/dc/elements/1.1/" xmlns:cc="http://creativecommons.org/ns#" xmlns:rdf="http://www.w3.org/1999/02/22-rdf-syntax-ns#">
   <cc:Work>
    <dc:type rdf:resource="http://purl.org/dc/dcmitype/StillImage"/>
    <dc:date>2025-06-18T15:52:34.231488</dc:date>
    <dc:format>image/svg+xml</dc:format>
    <dc:creator>
     <cc:Agent>
      <dc:title>Matplotlib v3.8.4, https://matplotlib.org/</dc:title>
     </cc:Agent>
    </dc:creator>
   </cc:Work>
  </rdf:RDF>
 </metadata>
 <defs>
  <style type="text/css">*{stroke-linejoin: round; stroke-linecap: butt}</style>
 </defs>
 <g id="figure_1">
  <g id="patch_1">
   <path d="M 0 288 
L 864 288 
L 864 0 
L 0 0 
z
" style="fill: #ffffff"/>
  </g>
  <g id="patch_2">
   <path d="M 15.515294 277.2 
L 279.684706 277.2 
L 279.684706 13.030588 
L 15.515294 13.030588 
z
" style="fill: #ffffff"/>
  </g>
  <g id="pane3d_1">
   <g id="patch_3">
    <path d="M 132.075759 159.306288 
L 266.210308 192.822153 
L 269.72875 74.400503 
L 131.52704 47.072129 
" style="fill: #f2f2f2; opacity: 0.5; stroke: #f2f2f2; stroke-linejoin: miter"/>
   </g>
  </g>
  <g id="pane3d_2">
   <g id="patch_4">
    <path d="M 132.075759 159.306288 
L 32.973841 208.48486 
L 29.256611 87.205327 
L 131.52704 47.072129 
" style="fill: #e6e6e6; opacity: 0.5; stroke: #e6e6e6; stroke-linejoin: miter"/>
   </g>
  </g>
  <g id="pane3d_3">
   <g id="patch_5">
    <path d="M 132.075759 159.306288 
L 32.973841 208.48486 
L 173.437627 248.643618 
L 266.210308 192.822153 
" style="fill: #ececec; opacity: 0.5; stroke: #ececec; stroke-linejoin: miter"/>
   </g>
  </g>
  <g id="grid3d_1">
   <g id="Line3DCollection_1">
    <path d="M 262.397684 195.116214 
L 127.980622 161.338468 
L 127.311627 48.726351 
" style="fill: none; stroke: #b0b0b0; stroke-width: 0.8"/>
    <path d="M 246.371439 204.75923 
L 110.787939 169.870206 
L 109.603982 55.675226 
" style="fill: none; stroke: #b0b0b0; stroke-width: 0.8"/>
    <path d="M 229.796842 214.732192 
L 93.042765 178.676114 
L 91.310339 62.85406 
" style="fill: none; stroke: #b0b0b0; stroke-width: 0.8"/>
    <path d="M 212.645257 225.052326 
L 74.718034 187.769622 
L 72.401118 70.27446 
" style="fill: none; stroke: #b0b0b0; stroke-width: 0.8"/>
    <path d="M 194.886024 235.738085 
L 55.784882 197.165054 
L 52.844719 77.948827 
" style="fill: none; stroke: #b0b0b0; stroke-width: 0.8"/>
    <path d="M 176.486268 246.809246 
L 36.212496 206.877701 
L 32.607336 85.890427 
" style="fill: none; stroke: #b0b0b0; stroke-width: 0.8"/>
   </g>
  </g>
  <g id="grid3d_2">
   <g id="Line3DCollection_2">
    <path d="M 155.306614 51.774365 
L 155.189813 165.081739 
L 57.064135 215.372303 
" style="fill: none; stroke: #b0b0b0; stroke-width: 0.8"/>
    <path d="M 183.295987 57.309058 
L 182.377563 171.875074 
L 85.460939 223.490982 
" style="fill: none; stroke: #b0b0b0; stroke-width: 0.8"/>
    <path d="M 212.015352 62.988102 
L 210.25387 178.840457 
L 114.645341 231.834836 
" style="fill: none; stroke: #b0b0b0; stroke-width: 0.8"/>
    <path d="M 241.493643 68.817218 
L 238.845226 185.984508 
L 144.650569 240.413365 
" style="fill: none; stroke: #b0b0b0; stroke-width: 0.8"/>
   </g>
  </g>
  <g id="grid3d_3">
   <g id="Line3DCollection_3">
    <path d="M 32.380904 189.139503 
L 131.988039 141.364112 
L 266.771932 173.91933 
" style="fill: none; stroke: #b0b0b0; stroke-width: 0.8"/>
    <path d="M 31.718508 167.527989 
L 131.89013 121.337979 
L 267.399169 152.808175 
" style="fill: none; stroke: #b0b0b0; stroke-width: 0.8"/>
    <path d="M 31.048685 145.674102 
L 131.791217 101.10636 
L 268.033249 131.46668 
" style="fill: none; stroke: #b0b0b0; stroke-width: 0.8"/>
    <path d="M 30.371306 123.573741 
L 131.691283 80.666077 
L 268.674285 109.891053 
" style="fill: none; stroke: #b0b0b0; stroke-width: 0.8"/>
    <path d="M 29.686245 101.222713 
L 131.590313 60.013884 
L 269.322393 88.077421 
" style="fill: none; stroke: #b0b0b0; stroke-width: 0.8"/>
   </g>
  </g>
  <g id="axis3d_1">
   <g id="line2d_1">
    <path d="M 266.210308 192.822153 
L 173.437627 248.643618 
" style="fill: none; stroke: #000000; stroke-width: 0.8; stroke-linecap: square"/>
   </g>
   <g id="xtick_1">
    <g id="line2d_2">
     <path d="M 261.255596 194.829218 
L 264.685296 195.691069 
" style="fill: none; stroke: #000000; stroke-width: 0.8; stroke-linecap: square"/>
    </g>
    <g id="text_1">
     <!-- 0 -->
     <g transform="translate(270.909826 215.38653) scale(0.1 -0.1)">
      <defs>
       <path id="DejaVuSans-30" d="M 2034 4250 
Q 1547 4250 1301 3770 
Q 1056 3291 1056 2328 
Q 1056 1369 1301 889 
Q 1547 409 2034 409 
Q 2525 409 2770 889 
Q 3016 1369 3016 2328 
Q 3016 3291 2770 3770 
Q 2525 4250 2034 4250 
z
M 2034 4750 
Q 2819 4750 3233 4129 
Q 3647 3509 3647 2328 
Q 3647 1150 3233 529 
Q 2819 -91 2034 -91 
Q 1250 -91 836 529 
Q 422 1150 422 2328 
Q 422 3509 836 4129 
Q 1250 4750 2034 4750 
z
" transform="scale(0.015625)"/>
      </defs>
      <use xlink:href="#DejaVuSans-30"/>
     </g>
    </g>
   </g>
   <g id="xtick_2">
    <g id="line2d_3">
     <path d="M 245.218309 204.462501 
L 248.681228 205.353597 
" style="fill: none; stroke: #000000; stroke-width: 0.8; stroke-linecap: square"/>
    </g>
    <g id="text_2">
     <!-- 1 -->
     <g transform="translate(255.036002 225.270251) scale(0.1 -0.1)">
      <defs>
       <path id="DejaVuSans-31" d="M 794 531 
L 1825 531 
L 1825 4091 
L 703 3866 
L 703 4441 
L 1819 4666 
L 2450 4666 
L 2450 531 
L 3481 531 
L 3481 0 
L 794 0 
L 794 531 
z
" transform="scale(0.015625)"/>
      </defs>
      <use xlink:href="#DejaVuSans-31"/>
     </g>
    </g>
   </g>
   <g id="xtick_3">
    <g id="line2d_4">
     <path d="M 228.632575 214.425225 
L 232.128998 215.347079 
" style="fill: none; stroke: #000000; stroke-width: 0.8; stroke-linecap: square"/>
    </g>
    <g id="text_3">
     <!-- 2 -->
     <g transform="translate(238.617495 235.493115) scale(0.1 -0.1)">
      <defs>
       <path id="DejaVuSans-32" d="M 1228 531 
L 3431 531 
L 3431 0 
L 469 0 
L 469 531 
Q 828 903 1448 1529 
Q 2069 2156 2228 2338 
Q 2531 2678 2651 2914 
Q 2772 3150 2772 3378 
Q 2772 3750 2511 3984 
Q 2250 4219 1831 4219 
Q 1534 4219 1204 4116 
Q 875 4013 500 3803 
L 500 4441 
Q 881 4594 1212 4672 
Q 1544 4750 1819 4750 
Q 2544 4750 2975 4387 
Q 3406 4025 3406 3419 
Q 3406 3131 3298 2873 
Q 3191 2616 2906 2266 
Q 2828 2175 2409 1742 
Q 1991 1309 1228 531 
z
" transform="scale(0.015625)"/>
      </defs>
      <use xlink:href="#DejaVuSans-32"/>
     </g>
    </g>
   </g>
   <g id="xtick_4">
    <g id="line2d_5">
     <path d="M 211.46977 224.734584 
L 214.999952 225.688817 
" style="fill: none; stroke: #000000; stroke-width: 0.8; stroke-linecap: square"/>
    </g>
    <g id="text_4">
     <!-- 3 -->
     <g transform="translate(221.625781 246.072882) scale(0.1 -0.1)">
      <defs>
       <path id="DejaVuSans-33" d="M 2597 2516 
Q 3050 2419 3304 2112 
Q 3559 1806 3559 1356 
Q 3559 666 3084 287 
Q 2609 -91 1734 -91 
Q 1441 -91 1130 -33 
Q 819 25 488 141 
L 488 750 
Q 750 597 1062 519 
Q 1375 441 1716 441 
Q 2309 441 2620 675 
Q 2931 909 2931 1356 
Q 2931 1769 2642 2001 
Q 2353 2234 1838 2234 
L 1294 2234 
L 1294 2753 
L 1863 2753 
Q 2328 2753 2575 2939 
Q 2822 3125 2822 3475 
Q 2822 3834 2567 4026 
Q 2313 4219 1838 4219 
Q 1578 4219 1281 4162 
Q 984 4106 628 3988 
L 628 4550 
Q 988 4650 1302 4700 
Q 1616 4750 1894 4750 
Q 2613 4750 3031 4423 
Q 3450 4097 3450 3541 
Q 3450 3153 3228 2886 
Q 3006 2619 2597 2516 
z
" transform="scale(0.015625)"/>
      </defs>
      <use xlink:href="#DejaVuSans-33"/>
     </g>
    </g>
   </g>
   <g id="xtick_5">
    <g id="line2d_6">
     <path d="M 193.699246 235.408988 
L 197.263405 236.397337 
" style="fill: none; stroke: #000000; stroke-width: 0.8; stroke-linecap: square"/>
    </g>
    <g id="text_5">
     <!-- 4 -->
     <g transform="translate(204.030309 257.028574) scale(0.1 -0.1)">
      <defs>
       <path id="DejaVuSans-34" d="M 2419 4116 
L 825 1625 
L 2419 1625 
L 2419 4116 
z
M 2253 4666 
L 3047 4666 
L 3047 1625 
L 3713 1625 
L 3713 1100 
L 3047 1100 
L 3047 0 
L 2419 0 
L 2419 1100 
L 313 1100 
L 313 1709 
L 2253 4666 
z
" transform="scale(0.015625)"/>
      </defs>
      <use xlink:href="#DejaVuSans-34"/>
     </g>
    </g>
   </g>
   <g id="xtick_6">
    <g id="line2d_7">
     <path d="M 175.288141 246.468177 
L 178.886453 247.492504 
" style="fill: none; stroke: #000000; stroke-width: 0.8; stroke-linecap: square"/>
    </g>
    <g id="text_6">
     <!-- 5 -->
     <g transform="translate(185.798318 268.380591) scale(0.1 -0.1)">
      <defs>
       <path id="DejaVuSans-35" d="M 691 4666 
L 3169 4666 
L 3169 4134 
L 1269 4134 
L 1269 2991 
Q 1406 3038 1543 3061 
Q 1681 3084 1819 3084 
Q 2600 3084 3056 2656 
Q 3513 2228 3513 1497 
Q 3513 744 3044 326 
Q 2575 -91 1722 -91 
Q 1428 -91 1123 -41 
Q 819 9 494 109 
L 494 744 
Q 775 591 1075 516 
Q 1375 441 1709 441 
Q 2250 441 2565 725 
Q 2881 1009 2881 1497 
Q 2881 1984 2565 2268 
Q 2250 2553 1709 2553 
Q 1456 2553 1204 2497 
Q 953 2441 691 2322 
L 691 4666 
z
" transform="scale(0.015625)"/>
      </defs>
      <use xlink:href="#DejaVuSans-35"/>
     </g>
    </g>
   </g>
   <g id="text_7">
    <!-- X -->
    <g transform="translate(244.899136 251.159921) scale(0.1 -0.1)">
     <defs>
      <path id="DejaVuSans-58" d="M 403 4666 
L 1081 4666 
L 2241 2931 
L 3406 4666 
L 4084 4666 
L 2584 2425 
L 4184 0 
L 3506 0 
L 2194 1984 
L 872 0 
L 191 0 
L 1856 2491 
L 403 4666 
z
" transform="scale(0.015625)"/>
     </defs>
     <use xlink:href="#DejaVuSans-58"/>
    </g>
   </g>
  </g>
  <g id="axis3d_2">
   <g id="line2d_8">
    <path d="M 32.973841 208.48486 
L 173.437627 248.643618 
" style="fill: none; stroke: #000000; stroke-width: 0.8; stroke-linecap: square"/>
   </g>
   <g id="xtick_7">
    <g id="line2d_9">
     <path d="M 57.921175 214.93306 
L 55.346242 216.252743 
" style="fill: none; stroke: #000000; stroke-width: 0.8; stroke-linecap: square"/>
    </g>
    <g id="text_8">
     <!-- 1 -->
     <g transform="translate(45.119477 237.563974) scale(0.1 -0.1)">
      <use xlink:href="#DejaVuSans-31"/>
     </g>
    </g>
   </g>
   <g id="xtick_8">
    <g id="line2d_10">
     <path d="M 86.308391 223.039645 
L 83.762213 224.39569 
" style="fill: none; stroke: #000000; stroke-width: 0.8; stroke-linecap: square"/>
    </g>
    <g id="text_9">
     <!-- 2 -->
     <g transform="translate(73.545065 245.925989) scale(0.1 -0.1)">
      <use xlink:href="#DejaVuSans-32"/>
     </g>
    </g>
   </g>
   <g id="xtick_9">
    <g id="line2d_11">
     <path d="M 115.482341 231.3709 
L 112.967514 232.764831 
" style="fill: none; stroke: #000000; stroke-width: 0.8; stroke-linecap: square"/>
    </g>
    <g id="text_10">
     <!-- 3 -->
     <g transform="translate(102.763253 254.521165) scale(0.1 -0.1)">
      <use xlink:href="#DejaVuSans-33"/>
     </g>
    </g>
   </g>
   <g id="xtick_10">
    <g id="line2d_12">
     <path d="M 145.47619 239.936294 
L 142.995499 241.369721 
" style="fill: none; stroke: #000000; stroke-width: 0.8; stroke-linecap: square"/>
    </g>
    <g id="text_11">
     <!-- 4 -->
     <g transform="translate(132.807659 263.359391) scale(0.1 -0.1)">
      <use xlink:href="#DejaVuSans-34"/>
     </g>
    </g>
   </g>
   <g id="text_12">
    <!-- Y -->
    <g transform="translate(78.758405 263.404442) scale(0.1 -0.1)">
     <defs>
      <path id="DejaVuSans-59" d="M -13 4666 
L 666 4666 
L 1959 2747 
L 3244 4666 
L 3922 4666 
L 2272 2222 
L 2272 0 
L 1638 0 
L 1638 2222 
L -13 4666 
z
" transform="scale(0.015625)"/>
     </defs>
     <use xlink:href="#DejaVuSans-59"/>
    </g>
   </g>
  </g>
  <g id="axis3d_3">
   <g id="line2d_13">
    <path d="M 32.973841 208.48486 
L 29.256611 87.205327 
" style="fill: none; stroke: #000000; stroke-width: 0.8; stroke-linecap: square"/>
   </g>
   <g id="xtick_11">
    <g id="line2d_14">
     <path d="M 33.250397 188.722461 
L 30.638074 189.975431 
" style="fill: none; stroke: #000000; stroke-width: 0.8; stroke-linecap: square"/>
    </g>
    <g id="text_13">
     <!-- −0.10 -->
     <g transform="translate(-3.119366 198.048173) scale(0.1 -0.1)">
      <defs>
       <path id="DejaVuSans-2212" d="M 678 2272 
L 4684 2272 
L 4684 1741 
L 678 1741 
L 678 2272 
z
" transform="scale(0.015625)"/>
       <path id="DejaVuSans-2e" d="M 684 794 
L 1344 794 
L 1344 0 
L 684 0 
L 684 794 
z
" transform="scale(0.015625)"/>
      </defs>
      <use xlink:href="#DejaVuSans-2212"/>
      <use xlink:href="#DejaVuSans-30" x="83.789062"/>
      <use xlink:href="#DejaVuSans-2e" x="147.412109"/>
      <use xlink:href="#DejaVuSans-31" x="179.199219"/>
      <use xlink:href="#DejaVuSans-30" x="242.822266"/>
     </g>
    </g>
   </g>
   <g id="xtick_12">
    <g id="line2d_15">
     <path d="M 32.593336 167.124599 
L 29.964965 168.336564 
" style="fill: none; stroke: #000000; stroke-width: 0.8; stroke-linecap: square"/>
    </g>
    <g id="text_14">
     <!-- −0.05 -->
     <g transform="translate(-3.896076 176.393792) scale(0.1 -0.1)">
      <use xlink:href="#DejaVuSans-2212"/>
      <use xlink:href="#DejaVuSans-30" x="83.789062"/>
      <use xlink:href="#DejaVuSans-2e" x="147.412109"/>
      <use xlink:href="#DejaVuSans-30" x="179.199219"/>
      <use xlink:href="#DejaVuSans-35" x="242.822266"/>
     </g>
    </g>
   </g>
   <g id="xtick_13">
    <g id="line2d_16">
     <path d="M 31.928912 145.284696 
L 29.284295 146.454655 
" style="fill: none; stroke: #000000; stroke-width: 0.8; stroke-linecap: square"/>
    </g>
    <g id="text_15">
     <!-- 0.00 -->
     <g transform="translate(-0.491673 154.495989) scale(0.1 -0.1)">
      <use xlink:href="#DejaVuSans-30"/>
      <use xlink:href="#DejaVuSans-2e" x="63.623047"/>
      <use xlink:href="#DejaVuSans-30" x="95.410156"/>
      <use xlink:href="#DejaVuSans-30" x="159.033203"/>
     </g>
    </g>
   </g>
   <g id="xtick_14">
    <g id="line2d_17">
     <path d="M 31.257 123.198662 
L 28.595937 124.325586 
" style="fill: none; stroke: #000000; stroke-width: 0.8; stroke-linecap: square"/>
    </g>
    <g id="text_16">
     <!-- 0.05 -->
     <g transform="translate(-1.285993 132.350637) scale(0.1 -0.1)">
      <use xlink:href="#DejaVuSans-30"/>
      <use xlink:href="#DejaVuSans-2e" x="63.623047"/>
      <use xlink:href="#DejaVuSans-30" x="95.410156"/>
      <use xlink:href="#DejaVuSans-35" x="159.033203"/>
     </g>
    </g>
   </g>
   <g id="xtick_15">
    <g id="line2d_18">
     <path d="M 30.577473 100.862311 
L 27.89976 101.945147 
" style="fill: none; stroke: #000000; stroke-width: 0.8; stroke-linecap: square"/>
    </g>
    <g id="text_17">
     <!-- 0.10 -->
     <g transform="translate(-2.089344 109.953515) scale(0.1 -0.1)">
      <use xlink:href="#DejaVuSans-30"/>
      <use xlink:href="#DejaVuSans-2e" x="63.623047"/>
      <use xlink:href="#DejaVuSans-31" x="95.410156"/>
      <use xlink:href="#DejaVuSans-30" x="159.033203"/>
     </g>
    </g>
   </g>
   <g id="text_18">
    <!-- Z -->
    <g transform="translate(-16.73123 154.223934) scale(0.1 -0.1)">
     <defs>
      <path id="DejaVuSans-5a" d="M 359 4666 
L 4025 4666 
L 4025 4184 
L 1075 531 
L 4097 531 
L 4097 0 
L 288 0 
L 288 481 
L 3238 4134 
L 359 4134 
L 359 4666 
z
" transform="scale(0.015625)"/>
     </defs>
     <use xlink:href="#DejaVuSans-5a"/>
    </g>
   </g>
  </g>
  <g id="axes_1">
   <g id="Path3DCollection_1">
    <defs>
     <path id="C0_0_8179804a7e" d="M 0 3.872983 
C 1.027127 3.872983 2.012324 3.464901 2.738613 2.738613 
C 3.464901 2.012324 3.872983 1.027127 3.872983 -0 
C 3.872983 -1.027127 3.464901 -2.012324 2.738613 -2.738613 
C 2.012324 -3.464901 1.027127 -3.872983 0 -3.872983 
C -1.027127 -3.872983 -2.012324 -3.464901 -2.738613 -2.738613 
C -3.464901 -2.012324 -3.872983 -1.027127 -3.872983 0 
C -3.872983 1.027127 -3.464901 2.012324 -2.738613 2.738613 
C -2.012324 3.464901 -1.027127 3.872983 0 3.872983 
z
"/>
    </defs>
    <g clip-path="url(#p0344203779)">
     <use xlink:href="#C0_0_8179804a7e" x="129.801441" y="122.73038" style="fill: #0000ff; fill-opacity: 0.3; stroke: #0000ff; stroke-opacity: 0.3"/>
    </g>
    <g clip-path="url(#p0344203779)">
     <use xlink:href="#C0_0_8179804a7e" x="240.569234" y="80.108043" style="fill: #0000ff; fill-opacity: 0.683129; stroke: #0000ff; stroke-opacity: 0.683129"/>
    </g>
    <g clip-path="url(#p0344203779)">
     <use xlink:href="#C0_0_8179804a7e" x="177.712982" y="133.473832" style="fill: #0000ff; fill-opacity: 0.755388; stroke: #0000ff; stroke-opacity: 0.755388"/>
    </g>
    <g clip-path="url(#p0344203779)">
     <use xlink:href="#C0_0_8179804a7e" x="146.705399" y="149.231833" style="fill: #0000ff; fill-opacity: 0.792897; stroke: #0000ff; stroke-opacity: 0.792897"/>
    </g>
    <g clip-path="url(#p0344203779)">
     <use xlink:href="#C0_0_8179804a7e" x="212.996793" y="168.437866" style="fill: #0000ff; fill-opacity: 0.830879; stroke: #0000ff; stroke-opacity: 0.830879"/>
    </g>
    <g clip-path="url(#p0344203779)">
     <use xlink:href="#C0_0_8179804a7e" x="89.671606" y="211.633395" style="fill: #0000ff; fill-opacity: 0.839491; stroke: #0000ff; stroke-opacity: 0.839491"/>
    </g>
    <g clip-path="url(#p0344203779)">
     <use xlink:href="#C0_0_8179804a7e" x="177.026474" y="115.102124" style="fill: #0000ff; fill-opacity: 0.904313; stroke: #0000ff; stroke-opacity: 0.904313"/>
    </g>
    <g clip-path="url(#p0344203779)">
     <use xlink:href="#C0_0_8179804a7e" x="126.627972" y="138.189038" style="fill: #0000ff; fill-opacity: 0.928921; stroke: #0000ff; stroke-opacity: 0.928921"/>
    </g>
    <g clip-path="url(#p0344203779)">
     <use xlink:href="#C0_0_8179804a7e" x="207.315767" y="137.476082" style="fill: #0000ff; fill-opacity: 0.990771; stroke: #0000ff; stroke-opacity: 0.990771"/>
    </g>
    <g clip-path="url(#p0344203779)">
     <use xlink:href="#C0_0_8179804a7e" x="179.220092" y="197.551087" style="fill: #0000ff; stroke: #0000ff"/>
    </g>
   </g>
   <g id="text_19">
    <!-- 1. Molecule (centered coordinates) -->
    <g transform="translate(43.007812 7.030588) scale(0.12 -0.12)">
     <defs>
      <path id="DejaVuSans-20" transform="scale(0.015625)"/>
      <path id="DejaVuSans-4d" d="M 628 4666 
L 1569 4666 
L 2759 1491 
L 3956 4666 
L 4897 4666 
L 4897 0 
L 4281 0 
L 4281 4097 
L 3078 897 
L 2444 897 
L 1241 4097 
L 1241 0 
L 628 0 
L 628 4666 
z
" transform="scale(0.015625)"/>
      <path id="DejaVuSans-6f" d="M 1959 3097 
Q 1497 3097 1228 2736 
Q 959 2375 959 1747 
Q 959 1119 1226 758 
Q 1494 397 1959 397 
Q 2419 397 2687 759 
Q 2956 1122 2956 1747 
Q 2956 2369 2687 2733 
Q 2419 3097 1959 3097 
z
M 1959 3584 
Q 2709 3584 3137 3096 
Q 3566 2609 3566 1747 
Q 3566 888 3137 398 
Q 2709 -91 1959 -91 
Q 1206 -91 779 398 
Q 353 888 353 1747 
Q 353 2609 779 3096 
Q 1206 3584 1959 3584 
z
" transform="scale(0.015625)"/>
      <path id="DejaVuSans-6c" d="M 603 4863 
L 1178 4863 
L 1178 0 
L 603 0 
L 603 4863 
z
" transform="scale(0.015625)"/>
      <path id="DejaVuSans-65" d="M 3597 1894 
L 3597 1613 
L 953 1613 
Q 991 1019 1311 708 
Q 1631 397 2203 397 
Q 2534 397 2845 478 
Q 3156 559 3463 722 
L 3463 178 
Q 3153 47 2828 -22 
Q 2503 -91 2169 -91 
Q 1331 -91 842 396 
Q 353 884 353 1716 
Q 353 2575 817 3079 
Q 1281 3584 2069 3584 
Q 2775 3584 3186 3129 
Q 3597 2675 3597 1894 
z
M 3022 2063 
Q 3016 2534 2758 2815 
Q 2500 3097 2075 3097 
Q 1594 3097 1305 2825 
Q 1016 2553 972 2059 
L 3022 2063 
z
" transform="scale(0.015625)"/>
      <path id="DejaVuSans-63" d="M 3122 3366 
L 3122 2828 
Q 2878 2963 2633 3030 
Q 2388 3097 2138 3097 
Q 1578 3097 1268 2742 
Q 959 2388 959 1747 
Q 959 1106 1268 751 
Q 1578 397 2138 397 
Q 2388 397 2633 464 
Q 2878 531 3122 666 
L 3122 134 
Q 2881 22 2623 -34 
Q 2366 -91 2075 -91 
Q 1284 -91 818 406 
Q 353 903 353 1747 
Q 353 2603 823 3093 
Q 1294 3584 2113 3584 
Q 2378 3584 2631 3529 
Q 2884 3475 3122 3366 
z
" transform="scale(0.015625)"/>
      <path id="DejaVuSans-75" d="M 544 1381 
L 544 3500 
L 1119 3500 
L 1119 1403 
Q 1119 906 1312 657 
Q 1506 409 1894 409 
Q 2359 409 2629 706 
Q 2900 1003 2900 1516 
L 2900 3500 
L 3475 3500 
L 3475 0 
L 2900 0 
L 2900 538 
Q 2691 219 2414 64 
Q 2138 -91 1772 -91 
Q 1169 -91 856 284 
Q 544 659 544 1381 
z
M 1991 3584 
L 1991 3584 
z
" transform="scale(0.015625)"/>
      <path id="DejaVuSans-28" d="M 1984 4856 
Q 1566 4138 1362 3434 
Q 1159 2731 1159 2009 
Q 1159 1288 1364 580 
Q 1569 -128 1984 -844 
L 1484 -844 
Q 1016 -109 783 600 
Q 550 1309 550 2009 
Q 550 2706 781 3412 
Q 1013 4119 1484 4856 
L 1984 4856 
z
" transform="scale(0.015625)"/>
      <path id="DejaVuSans-6e" d="M 3513 2113 
L 3513 0 
L 2938 0 
L 2938 2094 
Q 2938 2591 2744 2837 
Q 2550 3084 2163 3084 
Q 1697 3084 1428 2787 
Q 1159 2491 1159 1978 
L 1159 0 
L 581 0 
L 581 3500 
L 1159 3500 
L 1159 2956 
Q 1366 3272 1645 3428 
Q 1925 3584 2291 3584 
Q 2894 3584 3203 3211 
Q 3513 2838 3513 2113 
z
" transform="scale(0.015625)"/>
      <path id="DejaVuSans-74" d="M 1172 4494 
L 1172 3500 
L 2356 3500 
L 2356 3053 
L 1172 3053 
L 1172 1153 
Q 1172 725 1289 603 
Q 1406 481 1766 481 
L 2356 481 
L 2356 0 
L 1766 0 
Q 1100 0 847 248 
Q 594 497 594 1153 
L 594 3053 
L 172 3053 
L 172 3500 
L 594 3500 
L 594 4494 
L 1172 4494 
z
" transform="scale(0.015625)"/>
      <path id="DejaVuSans-72" d="M 2631 2963 
Q 2534 3019 2420 3045 
Q 2306 3072 2169 3072 
Q 1681 3072 1420 2755 
Q 1159 2438 1159 1844 
L 1159 0 
L 581 0 
L 581 3500 
L 1159 3500 
L 1159 2956 
Q 1341 3275 1631 3429 
Q 1922 3584 2338 3584 
Q 2397 3584 2469 3576 
Q 2541 3569 2628 3553 
L 2631 2963 
z
" transform="scale(0.015625)"/>
      <path id="DejaVuSans-64" d="M 2906 2969 
L 2906 4863 
L 3481 4863 
L 3481 0 
L 2906 0 
L 2906 525 
Q 2725 213 2448 61 
Q 2172 -91 1784 -91 
Q 1150 -91 751 415 
Q 353 922 353 1747 
Q 353 2572 751 3078 
Q 1150 3584 1784 3584 
Q 2172 3584 2448 3432 
Q 2725 3281 2906 2969 
z
M 947 1747 
Q 947 1113 1208 752 
Q 1469 391 1925 391 
Q 2381 391 2643 752 
Q 2906 1113 2906 1747 
Q 2906 2381 2643 2742 
Q 2381 3103 1925 3103 
Q 1469 3103 1208 2742 
Q 947 2381 947 1747 
z
" transform="scale(0.015625)"/>
      <path id="DejaVuSans-69" d="M 603 3500 
L 1178 3500 
L 1178 0 
L 603 0 
L 603 3500 
z
M 603 4863 
L 1178 4863 
L 1178 4134 
L 603 4134 
L 603 4863 
z
" transform="scale(0.015625)"/>
      <path id="DejaVuSans-61" d="M 2194 1759 
Q 1497 1759 1228 1600 
Q 959 1441 959 1056 
Q 959 750 1161 570 
Q 1363 391 1709 391 
Q 2188 391 2477 730 
Q 2766 1069 2766 1631 
L 2766 1759 
L 2194 1759 
z
M 3341 1997 
L 3341 0 
L 2766 0 
L 2766 531 
Q 2569 213 2275 61 
Q 1981 -91 1556 -91 
Q 1019 -91 701 211 
Q 384 513 384 1019 
Q 384 1609 779 1909 
Q 1175 2209 1959 2209 
L 2766 2209 
L 2766 2266 
Q 2766 2663 2505 2880 
Q 2244 3097 1772 3097 
Q 1472 3097 1187 3025 
Q 903 2953 641 2809 
L 641 3341 
Q 956 3463 1253 3523 
Q 1550 3584 1831 3584 
Q 2591 3584 2966 3190 
Q 3341 2797 3341 1997 
z
" transform="scale(0.015625)"/>
      <path id="DejaVuSans-73" d="M 2834 3397 
L 2834 2853 
Q 2591 2978 2328 3040 
Q 2066 3103 1784 3103 
Q 1356 3103 1142 2972 
Q 928 2841 928 2578 
Q 928 2378 1081 2264 
Q 1234 2150 1697 2047 
L 1894 2003 
Q 2506 1872 2764 1633 
Q 3022 1394 3022 966 
Q 3022 478 2636 193 
Q 2250 -91 1575 -91 
Q 1294 -91 989 -36 
Q 684 19 347 128 
L 347 722 
Q 666 556 975 473 
Q 1284 391 1588 391 
Q 1994 391 2212 530 
Q 2431 669 2431 922 
Q 2431 1156 2273 1281 
Q 2116 1406 1581 1522 
L 1381 1569 
Q 847 1681 609 1914 
Q 372 2147 372 2553 
Q 372 3047 722 3315 
Q 1072 3584 1716 3584 
Q 2034 3584 2315 3537 
Q 2597 3491 2834 3397 
z
" transform="scale(0.015625)"/>
      <path id="DejaVuSans-29" d="M 513 4856 
L 1013 4856 
Q 1481 4119 1714 3412 
Q 1947 2706 1947 2009 
Q 1947 1309 1714 600 
Q 1481 -109 1013 -844 
L 513 -844 
Q 928 -128 1133 580 
Q 1338 1288 1338 2009 
Q 1338 2731 1133 3434 
Q 928 4138 513 4856 
z
" transform="scale(0.015625)"/>
     </defs>
     <use xlink:href="#DejaVuSans-31"/>
     <use xlink:href="#DejaVuSans-2e" x="63.623047"/>
     <use xlink:href="#DejaVuSans-20" x="95.410156"/>
     <use xlink:href="#DejaVuSans-4d" x="127.197266"/>
     <use xlink:href="#DejaVuSans-6f" x="213.476562"/>
     <use xlink:href="#DejaVuSans-6c" x="274.658203"/>
     <use xlink:href="#DejaVuSans-65" x="302.441406"/>
     <use xlink:href="#DejaVuSans-63" x="363.964844"/>
     <use xlink:href="#DejaVuSans-75" x="418.945312"/>
     <use xlink:href="#DejaVuSans-6c" x="482.324219"/>
     <use xlink:href="#DejaVuSans-65" x="510.107422"/>
     <use xlink:href="#DejaVuSans-20" x="571.630859"/>
     <use xlink:href="#DejaVuSans-28" x="603.417969"/>
     <use xlink:href="#DejaVuSans-63" x="642.431641"/>
     <use xlink:href="#DejaVuSans-65" x="697.412109"/>
     <use xlink:href="#DejaVuSans-6e" x="758.935547"/>
     <use xlink:href="#DejaVuSans-74" x="822.314453"/>
     <use xlink:href="#DejaVuSans-65" x="861.523438"/>
     <use xlink:href="#DejaVuSans-72" x="923.046875"/>
     <use xlink:href="#DejaVuSans-65" x="961.910156"/>
     <use xlink:href="#DejaVuSans-64" x="1023.433594"/>
     <use xlink:href="#DejaVuSans-20" x="1086.910156"/>
     <use xlink:href="#DejaVuSans-63" x="1118.697266"/>
     <use xlink:href="#DejaVuSans-6f" x="1173.677734"/>
     <use xlink:href="#DejaVuSans-6f" x="1234.859375"/>
     <use xlink:href="#DejaVuSans-72" x="1296.041016"/>
     <use xlink:href="#DejaVuSans-64" x="1335.404297"/>
     <use xlink:href="#DejaVuSans-69" x="1398.880859"/>
     <use xlink:href="#DejaVuSans-6e" x="1426.664062"/>
     <use xlink:href="#DejaVuSans-61" x="1490.042969"/>
     <use xlink:href="#DejaVuSans-74" x="1551.322266"/>
     <use xlink:href="#DejaVuSans-65" x="1590.53125"/>
     <use xlink:href="#DejaVuSans-73" x="1652.054688"/>
     <use xlink:href="#DejaVuSans-29" x="1704.154297"/>
    </g>
   </g>
  </g>
  <g id="patch_6">
   <path d="M 299.915294 277.2 
L 564.084706 277.2 
L 564.084706 13.030588 
L 299.915294 13.030588 
z
" style="fill: #ffffff"/>
  </g>
  <g id="pane3d_4">
   <g id="patch_7">
    <path d="M 416.475759 159.306288 
L 550.610308 192.822153 
L 554.12875 74.400503 
L 415.92704 47.072129 
" style="fill: #f2f2f2; opacity: 0.5; stroke: #f2f2f2; stroke-linejoin: miter"/>
   </g>
  </g>
  <g id="pane3d_5">
   <g id="patch_8">
    <path d="M 416.475759 159.306288 
L 317.373841 208.48486 
L 313.656611 87.205327 
L 415.92704 47.072129 
" style="fill: #e6e6e6; opacity: 0.5; stroke: #e6e6e6; stroke-linejoin: miter"/>
   </g>
  </g>
  <g id="pane3d_6">
   <g id="patch_9">
    <path d="M 416.475759 159.306288 
L 317.373841 208.48486 
L 457.837627 248.643618 
L 550.610308 192.822153 
" style="fill: #ececec; opacity: 0.5; stroke: #ececec; stroke-linejoin: miter"/>
   </g>
  </g>
  <g id="grid3d_4">
   <g id="Line3DCollection_4">
    <path d="M 546.797684 195.116214 
L 412.380622 161.338468 
L 411.711627 48.726351 
" style="fill: none; stroke: #b0b0b0; stroke-width: 0.8"/>
    <path d="M 530.771439 204.75923 
L 395.187939 169.870206 
L 394.003982 55.675226 
" style="fill: none; stroke: #b0b0b0; stroke-width: 0.8"/>
    <path d="M 514.196842 214.732192 
L 377.442765 178.676114 
L 375.710339 62.85406 
" style="fill: none; stroke: #b0b0b0; stroke-width: 0.8"/>
    <path d="M 497.045257 225.052326 
L 359.118034 187.769622 
L 356.801118 70.27446 
" style="fill: none; stroke: #b0b0b0; stroke-width: 0.8"/>
    <path d="M 479.286024 235.738085 
L 340.184882 197.165054 
L 337.244719 77.948827 
" style="fill: none; stroke: #b0b0b0; stroke-width: 0.8"/>
    <path d="M 460.886268 246.809246 
L 320.612496 206.877701 
L 317.007336 85.890427 
" style="fill: none; stroke: #b0b0b0; stroke-width: 0.8"/>
   </g>
  </g>
  <g id="grid3d_5">
   <g id="Line3DCollection_5">
    <path d="M 439.706614 51.774365 
L 439.589813 165.081739 
L 341.464135 215.372303 
" style="fill: none; stroke: #b0b0b0; stroke-width: 0.8"/>
    <path d="M 467.695987 57.309058 
L 466.777563 171.875074 
L 369.860939 223.490982 
" style="fill: none; stroke: #b0b0b0; stroke-width: 0.8"/>
    <path d="M 496.415352 62.988102 
L 494.65387 178.840457 
L 399.045341 231.834836 
" style="fill: none; stroke: #b0b0b0; stroke-width: 0.8"/>
    <path d="M 525.893643 68.817218 
L 523.245226 185.984508 
L 429.050569 240.413365 
" style="fill: none; stroke: #b0b0b0; stroke-width: 0.8"/>
   </g>
  </g>
  <g id="grid3d_6">
   <g id="Line3DCollection_6">
    <path d="M 316.780904 189.139503 
L 416.388039 141.364112 
L 551.171932 173.91933 
" style="fill: none; stroke: #b0b0b0; stroke-width: 0.8"/>
    <path d="M 316.118508 167.527989 
L 416.29013 121.337979 
L 551.799169 152.808175 
" style="fill: none; stroke: #b0b0b0; stroke-width: 0.8"/>
    <path d="M 315.448685 145.674102 
L 416.191217 101.10636 
L 552.433249 131.46668 
" style="fill: none; stroke: #b0b0b0; stroke-width: 0.8"/>
    <path d="M 314.771306 123.573741 
L 416.091283 80.666077 
L 553.074285 109.891053 
" style="fill: none; stroke: #b0b0b0; stroke-width: 0.8"/>
    <path d="M 314.086245 101.222713 
L 415.990313 60.013884 
L 553.722393 88.077421 
" style="fill: none; stroke: #b0b0b0; stroke-width: 0.8"/>
   </g>
  </g>
  <g id="axis3d_4">
   <g id="line2d_19">
    <path d="M 550.610308 192.822153 
L 457.837627 248.643618 
" style="fill: none; stroke: #000000; stroke-width: 0.8; stroke-linecap: square"/>
   </g>
   <g id="xtick_16">
    <g id="line2d_20">
     <path d="M 545.655596 194.829218 
L 549.085296 195.691069 
" style="fill: none; stroke: #000000; stroke-width: 0.8; stroke-linecap: square"/>
    </g>
    <g id="text_20">
     <!-- 0 -->
     <g transform="translate(555.309826 215.38653) scale(0.1 -0.1)">
      <use xlink:href="#DejaVuSans-30"/>
     </g>
    </g>
   </g>
   <g id="xtick_17">
    <g id="line2d_21">
     <path d="M 529.618309 204.462501 
L 533.081228 205.353597 
" style="fill: none; stroke: #000000; stroke-width: 0.8; stroke-linecap: square"/>
    </g>
    <g id="text_21">
     <!-- 1 -->
     <g transform="translate(539.436002 225.270251) scale(0.1 -0.1)">
      <use xlink:href="#DejaVuSans-31"/>
     </g>
    </g>
   </g>
   <g id="xtick_18">
    <g id="line2d_22">
     <path d="M 513.032575 214.425225 
L 516.528998 215.347079 
" style="fill: none; stroke: #000000; stroke-width: 0.8; stroke-linecap: square"/>
    </g>
    <g id="text_22">
     <!-- 2 -->
     <g transform="translate(523.017495 235.493115) scale(0.1 -0.1)">
      <use xlink:href="#DejaVuSans-32"/>
     </g>
    </g>
   </g>
   <g id="xtick_19">
    <g id="line2d_23">
     <path d="M 495.86977 224.734584 
L 499.399952 225.688817 
" style="fill: none; stroke: #000000; stroke-width: 0.8; stroke-linecap: square"/>
    </g>
    <g id="text_23">
     <!-- 3 -->
     <g transform="translate(506.025781 246.072882) scale(0.1 -0.1)">
      <use xlink:href="#DejaVuSans-33"/>
     </g>
    </g>
   </g>
   <g id="xtick_20">
    <g id="line2d_24">
     <path d="M 478.099246 235.408988 
L 481.663405 236.397337 
" style="fill: none; stroke: #000000; stroke-width: 0.8; stroke-linecap: square"/>
    </g>
    <g id="text_24">
     <!-- 4 -->
     <g transform="translate(488.430309 257.028574) scale(0.1 -0.1)">
      <use xlink:href="#DejaVuSans-34"/>
     </g>
    </g>
   </g>
   <g id="xtick_21">
    <g id="line2d_25">
     <path d="M 459.688141 246.468177 
L 463.286453 247.492504 
" style="fill: none; stroke: #000000; stroke-width: 0.8; stroke-linecap: square"/>
    </g>
    <g id="text_25">
     <!-- 5 -->
     <g transform="translate(470.198318 268.380591) scale(0.1 -0.1)">
      <use xlink:href="#DejaVuSans-35"/>
     </g>
    </g>
   </g>
   <g id="text_26">
    <!-- X -->
    <g transform="translate(529.299136 251.159921) scale(0.1 -0.1)">
     <use xlink:href="#DejaVuSans-58"/>
    </g>
   </g>
  </g>
  <g id="axis3d_5">
   <g id="line2d_26">
    <path d="M 317.373841 208.48486 
L 457.837627 248.643618 
" style="fill: none; stroke: #000000; stroke-width: 0.8; stroke-linecap: square"/>
   </g>
   <g id="xtick_22">
    <g id="line2d_27">
     <path d="M 342.321175 214.93306 
L 339.746242 216.252743 
" style="fill: none; stroke: #000000; stroke-width: 0.8; stroke-linecap: square"/>
    </g>
    <g id="text_27">
     <!-- 1 -->
     <g transform="translate(329.519477 237.563974) scale(0.1 -0.1)">
      <use xlink:href="#DejaVuSans-31"/>
     </g>
    </g>
   </g>
   <g id="xtick_23">
    <g id="line2d_28">
     <path d="M 370.708391 223.039645 
L 368.162213 224.39569 
" style="fill: none; stroke: #000000; stroke-width: 0.8; stroke-linecap: square"/>
    </g>
    <g id="text_28">
     <!-- 2 -->
     <g transform="translate(357.945065 245.925989) scale(0.1 -0.1)">
      <use xlink:href="#DejaVuSans-32"/>
     </g>
    </g>
   </g>
   <g id="xtick_24">
    <g id="line2d_29">
     <path d="M 399.882341 231.3709 
L 397.367514 232.764831 
" style="fill: none; stroke: #000000; stroke-width: 0.8; stroke-linecap: square"/>
    </g>
    <g id="text_29">
     <!-- 3 -->
     <g transform="translate(387.163253 254.521165) scale(0.1 -0.1)">
      <use xlink:href="#DejaVuSans-33"/>
     </g>
    </g>
   </g>
   <g id="xtick_25">
    <g id="line2d_30">
     <path d="M 429.87619 239.936294 
L 427.395499 241.369721 
" style="fill: none; stroke: #000000; stroke-width: 0.8; stroke-linecap: square"/>
    </g>
    <g id="text_30">
     <!-- 4 -->
     <g transform="translate(417.207659 263.359391) scale(0.1 -0.1)">
      <use xlink:href="#DejaVuSans-34"/>
     </g>
    </g>
   </g>
   <g id="text_31">
    <!-- Y -->
    <g transform="translate(363.158405 263.404442) scale(0.1 -0.1)">
     <use xlink:href="#DejaVuSans-59"/>
    </g>
   </g>
  </g>
  <g id="axis3d_6">
   <g id="line2d_31">
    <path d="M 317.373841 208.48486 
L 313.656611 87.205327 
" style="fill: none; stroke: #000000; stroke-width: 0.8; stroke-linecap: square"/>
   </g>
   <g id="xtick_26">
    <g id="line2d_32">
     <path d="M 317.650397 188.722461 
L 315.038074 189.975431 
" style="fill: none; stroke: #000000; stroke-width: 0.8; stroke-linecap: square"/>
    </g>
    <g id="text_32">
     <!-- −0.10 -->
     <g transform="translate(281.280634 198.048173) scale(0.1 -0.1)">
      <use xlink:href="#DejaVuSans-2212"/>
      <use xlink:href="#DejaVuSans-30" x="83.789062"/>
      <use xlink:href="#DejaVuSans-2e" x="147.412109"/>
      <use xlink:href="#DejaVuSans-31" x="179.199219"/>
      <use xlink:href="#DejaVuSans-30" x="242.822266"/>
     </g>
    </g>
   </g>
   <g id="xtick_27">
    <g id="line2d_33">
     <path d="M 316.993336 167.124599 
L 314.364965 168.336564 
" style="fill: none; stroke: #000000; stroke-width: 0.8; stroke-linecap: square"/>
    </g>
    <g id="text_33">
     <!-- −0.05 -->
     <g transform="translate(280.503924 176.393792) scale(0.1 -0.1)">
      <use xlink:href="#DejaVuSans-2212"/>
      <use xlink:href="#DejaVuSans-30" x="83.789062"/>
      <use xlink:href="#DejaVuSans-2e" x="147.412109"/>
      <use xlink:href="#DejaVuSans-30" x="179.199219"/>
      <use xlink:href="#DejaVuSans-35" x="242.822266"/>
     </g>
    </g>
   </g>
   <g id="xtick_28">
    <g id="line2d_34">
     <path d="M 316.328912 145.284696 
L 313.684295 146.454655 
" style="fill: none; stroke: #000000; stroke-width: 0.8; stroke-linecap: square"/>
    </g>
    <g id="text_34">
     <!-- 0.00 -->
     <g transform="translate(283.908327 154.495989) scale(0.1 -0.1)">
      <use xlink:href="#DejaVuSans-30"/>
      <use xlink:href="#DejaVuSans-2e" x="63.623047"/>
      <use xlink:href="#DejaVuSans-30" x="95.410156"/>
      <use xlink:href="#DejaVuSans-30" x="159.033203"/>
     </g>
    </g>
   </g>
   <g id="xtick_29">
    <g id="line2d_35">
     <path d="M 315.657 123.198662 
L 312.995937 124.325586 
" style="fill: none; stroke: #000000; stroke-width: 0.8; stroke-linecap: square"/>
    </g>
    <g id="text_35">
     <!-- 0.05 -->
     <g transform="translate(283.114007 132.350637) scale(0.1 -0.1)">
      <use xlink:href="#DejaVuSans-30"/>
      <use xlink:href="#DejaVuSans-2e" x="63.623047"/>
      <use xlink:href="#DejaVuSans-30" x="95.410156"/>
      <use xlink:href="#DejaVuSans-35" x="159.033203"/>
     </g>
    </g>
   </g>
   <g id="xtick_30">
    <g id="line2d_36">
     <path d="M 314.977473 100.862311 
L 312.29976 101.945147 
" style="fill: none; stroke: #000000; stroke-width: 0.8; stroke-linecap: square"/>
    </g>
    <g id="text_36">
     <!-- 0.10 -->
     <g transform="translate(282.310656 109.953515) scale(0.1 -0.1)">
      <use xlink:href="#DejaVuSans-30"/>
      <use xlink:href="#DejaVuSans-2e" x="63.623047"/>
      <use xlink:href="#DejaVuSans-31" x="95.410156"/>
      <use xlink:href="#DejaVuSans-30" x="159.033203"/>
     </g>
    </g>
   </g>
   <g id="text_37">
    <!-- Z -->
    <g transform="translate(267.66877 154.223934) scale(0.1 -0.1)">
     <use xlink:href="#DejaVuSans-5a"/>
    </g>
   </g>
  </g>
  <g id="axes_2">
   <g id="Line3DCollection_7">
    <path d="M 466.897852 117.070101 
L 452.937593 144.968521 
" clip-path="url(#p56ce629524)" style="fill: none; stroke: #ff0000; stroke-width: 1.5"/>
    <path d="M 466.897852 117.070101 
L 466.179068 126.717935 
" clip-path="url(#p56ce629524)" style="fill: none; stroke: #ff0000; stroke-width: 1.5"/>
    <path d="M 466.897852 117.070101 
L 466.302095 110.014297 
" clip-path="url(#p56ce629524)" style="fill: none; stroke: #ff0000; stroke-width: 1.5"/>
   </g>
   <g id="text_38">
    <!-- PC1 -->
    <g style="fill: #ff0000" transform="translate(467.802578 115.262079) scale(0.1 -0.1)">
     <defs>
      <path id="DejaVuSans-50" d="M 1259 4147 
L 1259 2394 
L 2053 2394 
Q 2494 2394 2734 2622 
Q 2975 2850 2975 3272 
Q 2975 3691 2734 3919 
Q 2494 4147 2053 4147 
L 1259 4147 
z
M 628 4666 
L 2053 4666 
Q 2838 4666 3239 4311 
Q 3641 3956 3641 3272 
Q 3641 2581 3239 2228 
Q 2838 1875 2053 1875 
L 1259 1875 
L 1259 0 
L 628 0 
L 628 4666 
z
" transform="scale(0.015625)"/>
      <path id="DejaVuSans-43" d="M 4122 4306 
L 4122 3641 
Q 3803 3938 3442 4084 
Q 3081 4231 2675 4231 
Q 1875 4231 1450 3742 
Q 1025 3253 1025 2328 
Q 1025 1406 1450 917 
Q 1875 428 2675 428 
Q 3081 428 3442 575 
Q 3803 722 4122 1019 
L 4122 359 
Q 3791 134 3420 21 
Q 3050 -91 2638 -91 
Q 1578 -91 968 557 
Q 359 1206 359 2328 
Q 359 3453 968 4101 
Q 1578 4750 2638 4750 
Q 3056 4750 3426 4639 
Q 3797 4528 4122 4306 
z
" transform="scale(0.015625)"/>
     </defs>
     <use xlink:href="#DejaVuSans-50"/>
     <use xlink:href="#DejaVuSans-43" x="60.302734"/>
     <use xlink:href="#DejaVuSans-31" x="130.126953"/>
    </g>
   </g>
   <g id="text_39">
    <!-- PC2 -->
    <g style="fill: #008000" transform="translate(507.247522 131.972592) scale(0.1 -0.1)">
     <use xlink:href="#DejaVuSans-50"/>
     <use xlink:href="#DejaVuSans-43" x="60.302734"/>
     <use xlink:href="#DejaVuSans-32" x="130.126953"/>
    </g>
   </g>
   <g id="text_40">
    <!-- PC3 -->
    <g style="fill: #800080" transform="translate(462.064702 89.087415) scale(0.1 -0.1)">
     <use xlink:href="#DejaVuSans-50"/>
     <use xlink:href="#DejaVuSans-43" x="60.302734"/>
     <use xlink:href="#DejaVuSans-33" x="130.126953"/>
    </g>
   </g>
   <g id="text_41">
    <!-- 2. Apply Principal Component Analysis -->
    <g transform="translate(316.585313 7.030588) scale(0.12 -0.12)">
     <defs>
      <path id="DejaVuSans-41" d="M 2188 4044 
L 1331 1722 
L 3047 1722 
L 2188 4044 
z
M 1831 4666 
L 2547 4666 
L 4325 0 
L 3669 0 
L 3244 1197 
L 1141 1197 
L 716 0 
L 50 0 
L 1831 4666 
z
" transform="scale(0.015625)"/>
      <path id="DejaVuSans-70" d="M 1159 525 
L 1159 -1331 
L 581 -1331 
L 581 3500 
L 1159 3500 
L 1159 2969 
Q 1341 3281 1617 3432 
Q 1894 3584 2278 3584 
Q 2916 3584 3314 3078 
Q 3713 2572 3713 1747 
Q 3713 922 3314 415 
Q 2916 -91 2278 -91 
Q 1894 -91 1617 61 
Q 1341 213 1159 525 
z
M 3116 1747 
Q 3116 2381 2855 2742 
Q 2594 3103 2138 3103 
Q 1681 3103 1420 2742 
Q 1159 2381 1159 1747 
Q 1159 1113 1420 752 
Q 1681 391 2138 391 
Q 2594 391 2855 752 
Q 3116 1113 3116 1747 
z
" transform="scale(0.015625)"/>
      <path id="DejaVuSans-79" d="M 2059 -325 
Q 1816 -950 1584 -1140 
Q 1353 -1331 966 -1331 
L 506 -1331 
L 506 -850 
L 844 -850 
Q 1081 -850 1212 -737 
Q 1344 -625 1503 -206 
L 1606 56 
L 191 3500 
L 800 3500 
L 1894 763 
L 2988 3500 
L 3597 3500 
L 2059 -325 
z
" transform="scale(0.015625)"/>
      <path id="DejaVuSans-6d" d="M 3328 2828 
Q 3544 3216 3844 3400 
Q 4144 3584 4550 3584 
Q 5097 3584 5394 3201 
Q 5691 2819 5691 2113 
L 5691 0 
L 5113 0 
L 5113 2094 
Q 5113 2597 4934 2840 
Q 4756 3084 4391 3084 
Q 3944 3084 3684 2787 
Q 3425 2491 3425 1978 
L 3425 0 
L 2847 0 
L 2847 2094 
Q 2847 2600 2669 2842 
Q 2491 3084 2119 3084 
Q 1678 3084 1418 2786 
Q 1159 2488 1159 1978 
L 1159 0 
L 581 0 
L 581 3500 
L 1159 3500 
L 1159 2956 
Q 1356 3278 1631 3431 
Q 1906 3584 2284 3584 
Q 2666 3584 2933 3390 
Q 3200 3197 3328 2828 
z
" transform="scale(0.015625)"/>
     </defs>
     <use xlink:href="#DejaVuSans-32"/>
     <use xlink:href="#DejaVuSans-2e" x="63.623047"/>
     <use xlink:href="#DejaVuSans-20" x="95.410156"/>
     <use xlink:href="#DejaVuSans-41" x="127.197266"/>
     <use xlink:href="#DejaVuSans-70" x="195.605469"/>
     <use xlink:href="#DejaVuSans-70" x="259.082031"/>
     <use xlink:href="#DejaVuSans-6c" x="322.558594"/>
     <use xlink:href="#DejaVuSans-79" x="350.341797"/>
     <use xlink:href="#DejaVuSans-20" x="409.521484"/>
     <use xlink:href="#DejaVuSans-50" x="441.308594"/>
     <use xlink:href="#DejaVuSans-72" x="499.861328"/>
     <use xlink:href="#DejaVuSans-69" x="540.974609"/>
     <use xlink:href="#DejaVuSans-6e" x="568.757812"/>
     <use xlink:href="#DejaVuSans-63" x="632.136719"/>
     <use xlink:href="#DejaVuSans-69" x="687.117188"/>
     <use xlink:href="#DejaVuSans-70" x="714.900391"/>
     <use xlink:href="#DejaVuSans-61" x="778.376953"/>
     <use xlink:href="#DejaVuSans-6c" x="839.65625"/>
     <use xlink:href="#DejaVuSans-20" x="867.439453"/>
     <use xlink:href="#DejaVuSans-43" x="899.226562"/>
     <use xlink:href="#DejaVuSans-6f" x="969.050781"/>
     <use xlink:href="#DejaVuSans-6d" x="1030.232422"/>
     <use xlink:href="#DejaVuSans-70" x="1127.644531"/>
     <use xlink:href="#DejaVuSans-6f" x="1191.121094"/>
     <use xlink:href="#DejaVuSans-6e" x="1252.302734"/>
     <use xlink:href="#DejaVuSans-65" x="1315.681641"/>
     <use xlink:href="#DejaVuSans-6e" x="1377.205078"/>
     <use xlink:href="#DejaVuSans-74" x="1440.583984"/>
     <use xlink:href="#DejaVuSans-20" x="1479.792969"/>
     <use xlink:href="#DejaVuSans-41" x="1511.580078"/>
     <use xlink:href="#DejaVuSans-6e" x="1579.988281"/>
     <use xlink:href="#DejaVuSans-61" x="1643.367188"/>
     <use xlink:href="#DejaVuSans-6c" x="1704.646484"/>
     <use xlink:href="#DejaVuSans-79" x="1732.429688"/>
     <use xlink:href="#DejaVuSans-73" x="1791.609375"/>
     <use xlink:href="#DejaVuSans-69" x="1843.708984"/>
     <use xlink:href="#DejaVuSans-73" x="1871.492188"/>
    </g>
   </g>
   <g id="Line3DCollection_8">
    <path d="M 453.061612 78.111073 
L 452.937593 144.968521 
" clip-path="url(#p56ce629524)" style="fill: none; stroke: #800080; stroke-width: 1.5"/>
    <path d="M 453.061612 78.111073 
L 452.990733 81.426758 
" clip-path="url(#p56ce629524)" style="fill: none; stroke: #800080; stroke-width: 1.5"/>
    <path d="M 453.061612 78.111073 
L 453.120316 81.358225 
" clip-path="url(#p56ce629524)" style="fill: none; stroke: #800080; stroke-width: 1.5"/>
   </g>
   <g id="Line3DCollection_9">
    <path d="M 503.792557 132.799338 
L 452.937593 144.968521 
" clip-path="url(#p56ce629524)" style="fill: none; stroke: #008000; stroke-width: 1.5"/>
    <path d="M 503.792557 132.799338 
L 501.168768 142.06024 
" clip-path="url(#p56ce629524)" style="fill: none; stroke: #008000; stroke-width: 1.5"/>
    <path d="M 503.792557 132.799338 
L 501.421306 124.695586 
" clip-path="url(#p56ce629524)" style="fill: none; stroke: #008000; stroke-width: 1.5"/>
   </g>
   <g id="Path3DCollection_2">
    <defs>
     <path id="C1_0_74a4486e3b" d="M 0 3.872983 
C 1.027127 3.872983 2.012324 3.464901 2.738613 2.738613 
C 3.464901 2.012324 3.872983 1.027127 3.872983 -0 
C 3.872983 -1.027127 3.464901 -2.012324 2.738613 -2.738613 
C 2.012324 -3.464901 1.027127 -3.872983 0 -3.872983 
C -1.027127 -3.872983 -2.012324 -3.464901 -2.738613 -2.738613 
C -3.464901 -2.012324 -3.872983 -1.027127 -3.872983 0 
C -3.872983 1.027127 -3.464901 2.012324 -2.738613 2.738613 
C -2.012324 3.464901 -1.027127 3.872983 0 3.872983 
z
"/>
    </defs>
    <g clip-path="url(#p56ce629524)">
     <use xlink:href="#C1_0_74a4486e3b" x="414.201441" y="122.73038" style="fill: #0000ff; fill-opacity: 0.3; stroke: #0000ff; stroke-opacity: 0.3"/>
    </g>
    <g clip-path="url(#p56ce629524)">
     <use xlink:href="#C1_0_74a4486e3b" x="524.969234" y="80.108043" style="fill: #0000ff; fill-opacity: 0.683129; stroke: #0000ff; stroke-opacity: 0.683129"/>
    </g>
    <g clip-path="url(#p56ce629524)">
     <use xlink:href="#C1_0_74a4486e3b" x="462.112982" y="133.473832" style="fill: #0000ff; fill-opacity: 0.755388; stroke: #0000ff; stroke-opacity: 0.755388"/>
    </g>
    <g clip-path="url(#p56ce629524)">
     <use xlink:href="#C1_0_74a4486e3b" x="431.105399" y="149.231833" style="fill: #0000ff; fill-opacity: 0.792897; stroke: #0000ff; stroke-opacity: 0.792897"/>
    </g>
    <g clip-path="url(#p56ce629524)">
     <use xlink:href="#C1_0_74a4486e3b" x="497.396793" y="168.437866" style="fill: #0000ff; fill-opacity: 0.830879; stroke: #0000ff; stroke-opacity: 0.830879"/>
    </g>
    <g clip-path="url(#p56ce629524)">
     <use xlink:href="#C1_0_74a4486e3b" x="374.071606" y="211.633395" style="fill: #0000ff; fill-opacity: 0.839491; stroke: #0000ff; stroke-opacity: 0.839491"/>
    </g>
    <g clip-path="url(#p56ce629524)">
     <use xlink:href="#C1_0_74a4486e3b" x="461.426474" y="115.102124" style="fill: #0000ff; fill-opacity: 0.904313; stroke: #0000ff; stroke-opacity: 0.904313"/>
    </g>
    <g clip-path="url(#p56ce629524)">
     <use xlink:href="#C1_0_74a4486e3b" x="411.027972" y="138.189038" style="fill: #0000ff; fill-opacity: 0.928921; stroke: #0000ff; stroke-opacity: 0.928921"/>
    </g>
    <g clip-path="url(#p56ce629524)">
     <use xlink:href="#C1_0_74a4486e3b" x="491.715767" y="137.476082" style="fill: #0000ff; fill-opacity: 0.990771; stroke: #0000ff; stroke-opacity: 0.990771"/>
    </g>
    <g clip-path="url(#p56ce629524)">
     <use xlink:href="#C1_0_74a4486e3b" x="463.620092" y="197.551087" style="fill: #0000ff; stroke: #0000ff"/>
    </g>
   </g>
  </g>
  <g id="patch_10">
   <path d="M 584.315294 277.2 
L 848.484706 277.2 
L 848.484706 13.030588 
L 584.315294 13.030588 
z
" style="fill: #ffffff"/>
  </g>
  <g id="pane3d_7">
   <g id="patch_11">
    <path d="M 700.875759 159.306288 
L 835.010308 192.822153 
L 838.52875 74.400503 
L 700.32704 47.072129 
" style="fill: #f2f2f2; opacity: 0.5; stroke: #f2f2f2; stroke-linejoin: miter"/>
   </g>
  </g>
  <g id="pane3d_8">
   <g id="patch_12">
    <path d="M 700.875759 159.306288 
L 601.773841 208.48486 
L 598.056611 87.205327 
L 700.32704 47.072129 
" style="fill: #e6e6e6; opacity: 0.5; stroke: #e6e6e6; stroke-linejoin: miter"/>
   </g>
  </g>
  <g id="pane3d_9">
   <g id="patch_13">
    <path d="M 700.875759 159.306288 
L 601.773841 208.48486 
L 742.237627 248.643618 
L 835.010308 192.822153 
" style="fill: #ececec; opacity: 0.5; stroke: #ececec; stroke-linejoin: miter"/>
   </g>
  </g>
  <g id="grid3d_7">
   <g id="Line3DCollection_10">
    <path d="M 824.638004 199.063184 
L 689.739391 164.832626 
L 688.861448 51.571483 
" style="fill: none; stroke: #b0b0b0; stroke-width: 0.8"/>
    <path d="M 811.90864 206.722462 
L 676.091834 171.605122 
L 674.801182 57.089045 
" style="fill: none; stroke: #b0b0b0; stroke-width: 0.8"/>
    <path d="M 798.836931 214.587729 
L 662.099552 178.548685 
L 660.375185 62.750128 
" style="fill: none; stroke: #b0b0b0; stroke-width: 0.8"/>
    <path d="M 785.408878 222.66741 
L 647.749317 185.66988 
L 645.568999 68.560406 
" style="fill: none; stroke: #b0b0b0; stroke-width: 0.8"/>
    <path d="M 771.609708 230.970392 
L 633.027217 192.97561 
L 630.367393 74.525855 
" style="fill: none; stroke: #b0b0b0; stroke-width: 0.8"/>
    <path d="M 757.42382 239.506063 
L 617.918606 200.473143 
L 614.754313 80.652776 
" style="fill: none; stroke: #b0b0b0; stroke-width: 0.8"/>
   </g>
  </g>
  <g id="grid3d_8">
   <g id="Line3DCollection_11">
    <path d="M 704.581195 47.913357 
L 705.011901 160.339776 
L 606.081195 209.716337 
" style="fill: none; stroke: #b0b0b0; stroke-width: 0.8"/>
    <path d="M 723.712604 51.696453 
L 723.606946 164.986073 
L 625.464711 215.258107 
" style="fill: none; stroke: #b0b0b0; stroke-width: 0.8"/>
    <path d="M 743.186772 55.547326 
L 742.525654 169.713243 
L 645.217137 220.905348 
" style="fill: none; stroke: #b0b0b0; stroke-width: 0.8"/>
    <path d="M 763.012994 59.467816 
L 761.776549 174.523416 
L 665.349107 226.661102 
" style="fill: none; stroke: #b0b0b0; stroke-width: 0.8"/>
    <path d="M 783.200904 63.459827 
L 781.368459 179.418798 
L 685.871666 232.528525 
" style="fill: none; stroke: #b0b0b0; stroke-width: 0.8"/>
    <path d="M 803.76049 67.525334 
L 801.310526 184.401672 
L 706.796292 238.5109 
" style="fill: none; stroke: #b0b0b0; stroke-width: 0.8"/>
    <path d="M 824.702111 71.666386 
L 821.612222 189.474406 
L 728.134918 244.611637 
" style="fill: none; stroke: #b0b0b0; stroke-width: 0.8"/>
   </g>
  </g>
  <g id="grid3d_9">
   <g id="Line3DCollection_12">
    <path d="M 601.579924 202.15808 
L 700.847063 153.436749 
L 835.194 186.639544 
" style="fill: none; stroke: #b0b0b0; stroke-width: 0.8"/>
    <path d="M 601.035697 184.40195 
L 700.766568 136.972487 
L 835.709447 169.290922 
" style="fill: none; stroke: #b0b0b0; stroke-width: 0.8"/>
    <path d="M 600.486443 166.481819 
L 700.685393 120.369031 
L 836.229527 151.786387 
" style="fill: none; stroke: #b0b0b0; stroke-width: 0.8"/>
    <path d="M 599.932093 148.395406 
L 700.603528 103.624608 
L 836.754302 134.123827 
" style="fill: none; stroke: #b0b0b0; stroke-width: 0.8"/>
    <path d="M 599.372575 130.140384 
L 700.520966 86.737416 
L 837.283835 116.301093 
" style="fill: none; stroke: #b0b0b0; stroke-width: 0.8"/>
    <path d="M 598.807816 111.714385 
L 700.437697 69.705621 
L 837.818193 98.315997 
" style="fill: none; stroke: #b0b0b0; stroke-width: 0.8"/>
    <path d="M 598.237743 93.114996 
L 700.353711 52.527358 
L 838.357441 80.166309 
" style="fill: none; stroke: #b0b0b0; stroke-width: 0.8"/>
   </g>
  </g>
  <g id="axis3d_7">
   <g id="line2d_37">
    <path d="M 835.010308 192.822153 
L 742.237627 248.643618 
" style="fill: none; stroke: #000000; stroke-width: 0.8; stroke-linecap: square"/>
   </g>
   <g id="xtick_31">
    <g id="line2d_38">
     <path d="M 823.491364 198.772223 
L 826.934758 199.645986 
" style="fill: none; stroke: #000000; stroke-width: 0.8; stroke-linecap: square"/>
    </g>
    <g id="text_42">
     <!-- 0 -->
     <g transform="translate(833.212711 219.431912) scale(0.1 -0.1)">
      <use xlink:href="#DejaVuSans-30"/>
     </g>
    </g>
   </g>
   <g id="xtick_32">
    <g id="line2d_39">
     <path d="M 810.753295 206.423731 
L 814.222877 207.32084 
" style="fill: none; stroke: #000000; stroke-width: 0.8; stroke-linecap: square"/>
    </g>
    <g id="text_43">
     <!-- 1 -->
     <g transform="translate(820.604054 227.2826) scale(0.1 -0.1)">
      <use xlink:href="#DejaVuSans-31"/>
     </g>
    </g>
   </g>
   <g id="xtick_33">
    <g id="line2d_40">
     <path d="M 797.672823 214.280913 
L 801.168767 215.202317 
" style="fill: none; stroke: #000000; stroke-width: 0.8; stroke-linecap: square"/>
    </g>
    <g id="text_44">
     <!-- 2 -->
     <g transform="translate(807.655335 235.345026) scale(0.1 -0.1)">
      <use xlink:href="#DejaVuSans-32"/>
     </g>
    </g>
   </g>
   <g id="xtick_34">
    <g id="line2d_41">
     <path d="M 784.235956 222.352174 
L 787.758419 223.298875 
" style="fill: none; stroke: #000000; stroke-width: 0.8; stroke-linecap: square"/>
    </g>
    <g id="text_45">
     <!-- 3 -->
     <g transform="translate(794.352606 243.627873) scale(0.1 -0.1)">
      <use xlink:href="#DejaVuSans-33"/>
     </g>
    </g>
   </g>
   <g id="xtick_35">
    <g id="line2d_42">
     <path d="M 770.427926 230.646386 
L 773.977048 231.619439 
" style="fill: none; stroke: #000000; stroke-width: 0.8; stroke-linecap: square"/>
    </g>
    <g id="text_46">
     <!-- 4 -->
     <g transform="translate(780.68115 252.140306) scale(0.1 -0.1)">
      <use xlink:href="#DejaVuSans-34"/>
     </g>
    </g>
   </g>
   <g id="xtick_36">
    <g id="line2d_43">
     <path d="M 756.233139 239.172916 
L 759.809042 240.173437 
" style="fill: none; stroke: #000000; stroke-width: 0.8; stroke-linecap: square"/>
    </g>
    <g id="text_47">
     <!-- 5 -->
     <g transform="translate(766.62542 260.892004) scale(0.1 -0.1)">
      <use xlink:href="#DejaVuSans-35"/>
     </g>
    </g>
   </g>
   <g id="text_48">
    <!-- X -->
    <g transform="translate(813.699136 251.159921) scale(0.1 -0.1)">
     <use xlink:href="#DejaVuSans-58"/>
    </g>
   </g>
  </g>
  <g id="axis3d_8">
   <g id="line2d_44">
    <path d="M 601.773841 208.48486 
L 742.237627 248.643618 
" style="fill: none; stroke: #000000; stroke-width: 0.8; stroke-linecap: square"/>
   </g>
   <g id="xtick_37">
    <g id="line2d_45">
     <path d="M 606.944575 209.285423 
L 604.350632 210.580066 
" style="fill: none; stroke: #000000; stroke-width: 0.8; stroke-linecap: square"/>
    </g>
    <g id="text_49">
     <!-- 0 -->
     <g transform="translate(594.118867 231.739188) scale(0.1 -0.1)">
      <use xlink:href="#DejaVuSans-30"/>
     </g>
    </g>
   </g>
   <g id="xtick_38">
    <g id="line2d_46">
     <path d="M 626.321881 214.819033 
L 623.746557 216.138208 
" style="fill: none; stroke: #000000; stroke-width: 0.8; stroke-linecap: square"/>
    </g>
    <g id="text_50">
     <!-- 1 -->
     <g transform="translate(613.519677 237.446364) scale(0.1 -0.1)">
      <use xlink:href="#DejaVuSans-31"/>
     </g>
    </g>
   </g>
   <g id="xtick_39">
    <g id="line2d_47">
     <path d="M 646.067705 220.457881 
L 643.512182 221.802292 
" style="fill: none; stroke: #000000; stroke-width: 0.8; stroke-linecap: square"/>
    </g>
    <g id="text_51">
     <!-- 2 -->
     <g transform="translate(633.291659 243.26273) scale(0.1 -0.1)">
      <use xlink:href="#DejaVuSans-32"/>
     </g>
    </g>
   </g>
   <g id="xtick_40">
    <g id="line2d_48">
     <path d="M 666.192659 226.204998 
L 663.658177 227.575376 
" style="fill: none; stroke: #000000; stroke-width: 0.8; stroke-linecap: square"/>
    </g>
    <g id="text_52">
     <!-- 3 -->
     <g transform="translate(653.445568 249.191447) scale(0.1 -0.1)">
      <use xlink:href="#DejaVuSans-33"/>
     </g>
    </g>
   </g>
   <g id="xtick_41">
    <g id="line2d_49">
     <path d="M 686.707769 232.063533 
L 684.195631 233.460637 
" style="fill: none; stroke: #000000; stroke-width: 0.8; stroke-linecap: square"/>
    </g>
    <g id="text_53">
     <!-- 4 -->
     <g transform="translate(673.992578 255.235804) scale(0.1 -0.1)">
      <use xlink:href="#DejaVuSans-34"/>
     </g>
    </g>
   </g>
   <g id="xtick_42">
    <g id="line2d_50">
     <path d="M 707.624491 238.036757 
L 705.136064 239.461377 
" style="fill: none; stroke: #000000; stroke-width: 0.8; stroke-linecap: square"/>
    </g>
    <g id="text_54">
     <!-- 5 -->
     <g transform="translate(694.944304 261.399218) scale(0.1 -0.1)">
      <use xlink:href="#DejaVuSans-35"/>
     </g>
    </g>
   </g>
   <g id="xtick_43">
    <g id="line2d_51">
     <path d="M 728.954736 244.128071 
L 726.491454 245.581028 
" style="fill: none; stroke: #000000; stroke-width: 0.8; stroke-linecap: square"/>
    </g>
    <g id="text_55">
     <!-- 6 -->
     <g transform="translate(716.312822 267.685239) scale(0.1 -0.1)">
      <defs>
       <path id="DejaVuSans-36" d="M 2113 2584 
Q 1688 2584 1439 2293 
Q 1191 2003 1191 1497 
Q 1191 994 1439 701 
Q 1688 409 2113 409 
Q 2538 409 2786 701 
Q 3034 994 3034 1497 
Q 3034 2003 2786 2293 
Q 2538 2584 2113 2584 
z
M 3366 4563 
L 3366 3988 
Q 3128 4100 2886 4159 
Q 2644 4219 2406 4219 
Q 1781 4219 1451 3797 
Q 1122 3375 1075 2522 
Q 1259 2794 1537 2939 
Q 1816 3084 2150 3084 
Q 2853 3084 3261 2657 
Q 3669 2231 3669 1497 
Q 3669 778 3244 343 
Q 2819 -91 2113 -91 
Q 1303 -91 875 529 
Q 447 1150 447 2328 
Q 447 3434 972 4092 
Q 1497 4750 2381 4750 
Q 2619 4750 2861 4703 
Q 3103 4656 3366 4563 
z
" transform="scale(0.015625)"/>
      </defs>
      <use xlink:href="#DejaVuSans-36"/>
     </g>
    </g>
   </g>
   <g id="text_56">
    <!-- Y -->
    <g transform="translate(647.558405 263.404442) scale(0.1 -0.1)">
     <use xlink:href="#DejaVuSans-59"/>
    </g>
   </g>
  </g>
  <g id="axis3d_9">
   <g id="line2d_52">
    <path d="M 601.773841 208.48486 
L 598.056611 87.205327 
" style="fill: none; stroke: #000000; stroke-width: 0.8; stroke-linecap: square"/>
   </g>
   <g id="xtick_44">
    <g id="line2d_53">
     <path d="M 602.446206 201.7329 
L 599.843543 203.010313 
" style="fill: none; stroke: #000000; stroke-width: 0.8; stroke-linecap: square"/>
    </g>
    <g id="text_57">
     <!-- −0.15 -->
     <g transform="translate(566.148507 211.092304) scale(0.1 -0.1)">
      <use xlink:href="#DejaVuSans-2212"/>
      <use xlink:href="#DejaVuSans-30" x="83.789062"/>
      <use xlink:href="#DejaVuSans-2e" x="147.412109"/>
      <use xlink:href="#DejaVuSans-31" x="179.199219"/>
      <use xlink:href="#DejaVuSans-35" x="242.822266"/>
     </g>
    </g>
   </g>
   <g id="xtick_45">
    <g id="line2d_54">
     <path d="M 601.906359 183.987885 
L 599.29052 185.231912 
" style="fill: none; stroke: #000000; stroke-width: 0.8; stroke-linecap: square"/>
    </g>
    <g id="text_58">
     <!-- −0.10 -->
     <g transform="translate(565.51037 193.30127) scale(0.1 -0.1)">
      <use xlink:href="#DejaVuSans-2212"/>
      <use xlink:href="#DejaVuSans-30" x="83.789062"/>
      <use xlink:href="#DejaVuSans-2e" x="147.412109"/>
      <use xlink:href="#DejaVuSans-31" x="179.199219"/>
      <use xlink:href="#DejaVuSans-30" x="242.822266"/>
     </g>
    </g>
   </g>
   <g id="xtick_46">
    <g id="line2d_55">
     <path d="M 601.361529 166.079094 
L 598.73238 167.289061 
" style="fill: none; stroke: #000000; stroke-width: 0.8; stroke-linecap: square"/>
    </g>
    <g id="text_59">
     <!-- −0.05 -->
     <g transform="translate(564.866325 175.345532) scale(0.1 -0.1)">
      <use xlink:href="#DejaVuSans-2212"/>
      <use xlink:href="#DejaVuSans-30" x="83.789062"/>
      <use xlink:href="#DejaVuSans-2e" x="147.412109"/>
      <use xlink:href="#DejaVuSans-30" x="179.199219"/>
      <use xlink:href="#DejaVuSans-35" x="242.822266"/>
     </g>
    </g>
   </g>
   <g id="xtick_47">
    <g id="line2d_56">
     <path d="M 600.811648 148.004248 
L 598.169054 149.179468 
" style="fill: none; stroke: #000000; stroke-width: 0.8; stroke-linecap: square"/>
    </g>
    <g id="text_60">
     <!-- 0.00 -->
     <g transform="translate(568.406133 157.222792) scale(0.1 -0.1)">
      <use xlink:href="#DejaVuSans-30"/>
      <use xlink:href="#DejaVuSans-2e" x="63.623047"/>
      <use xlink:href="#DejaVuSans-30" x="95.410156"/>
      <use xlink:href="#DejaVuSans-30" x="159.033203"/>
     </g>
    </g>
   </g>
   <g id="xtick_48">
    <g id="line2d_57">
     <path d="M 600.256644 129.761028 
L 597.600469 130.900798 
" style="fill: none; stroke: #000000; stroke-width: 0.8; stroke-linecap: square"/>
    </g>
    <g id="text_61">
     <!-- 0.05 -->
     <g transform="translate(567.750024 138.930709) scale(0.1 -0.1)">
      <use xlink:href="#DejaVuSans-30"/>
      <use xlink:href="#DejaVuSans-2e" x="63.623047"/>
      <use xlink:href="#DejaVuSans-30" x="95.410156"/>
      <use xlink:href="#DejaVuSans-35" x="159.033203"/>
     </g>
    </g>
   </g>
   <g id="xtick_49">
    <g id="line2d_58">
     <path d="M 599.696445 111.34707 
L 597.02655 112.450672 
" style="fill: none; stroke: #000000; stroke-width: 0.8; stroke-linecap: square"/>
    </g>
    <g id="text_62">
     <!-- 0.10 -->
     <g transform="translate(567.087755 120.466898) scale(0.1 -0.1)">
      <use xlink:href="#DejaVuSans-30"/>
      <use xlink:href="#DejaVuSans-2e" x="63.623047"/>
      <use xlink:href="#DejaVuSans-31" x="95.410156"/>
      <use xlink:href="#DejaVuSans-30" x="159.033203"/>
     </g>
    </g>
   </g>
   <g id="xtick_50">
    <g id="line2d_59">
     <path d="M 599.13098 92.759965 
L 596.447223 93.826667 
" style="fill: none; stroke: #000000; stroke-width: 0.8; stroke-linecap: square"/>
    </g>
    <g id="text_63">
     <!-- 0.15 -->
     <g transform="translate(566.419239 101.828929) scale(0.1 -0.1)">
      <use xlink:href="#DejaVuSans-30"/>
      <use xlink:href="#DejaVuSans-2e" x="63.623047"/>
      <use xlink:href="#DejaVuSans-31" x="95.410156"/>
      <use xlink:href="#DejaVuSans-35" x="159.033203"/>
     </g>
    </g>
   </g>
   <g id="text_64">
    <!-- Z -->
    <g transform="translate(552.06877 154.223934) scale(0.1 -0.1)">
     <use xlink:href="#DejaVuSans-5a"/>
    </g>
   </g>
  </g>
  <g id="axes_3">
   <g id="Path3DCollection_3">
    <defs>
     <path id="C2_0_ed73301850" d="M 0 3.872983 
C 1.027127 3.872983 2.012324 3.464901 2.738613 2.738613 
C 3.464901 2.012324 3.872983 1.027127 3.872983 -0 
C 3.872983 -1.027127 3.464901 -2.012324 2.738613 -2.738613 
C 2.012324 -3.464901 1.027127 -3.872983 0 -3.872983 
C -1.027127 -3.872983 -2.012324 -3.464901 -2.738613 -2.738613 
C -3.464901 -2.012324 -3.872983 -1.027127 -3.872983 0 
C -3.872983 1.027127 -3.464901 2.012324 -2.738613 2.738613 
C -2.012324 3.464901 -1.027127 3.872983 0 3.872983 
z
"/>
    </defs>
    <g clip-path="url(#p142a9483e7)">
     <use xlink:href="#C2_0_ed73301850" x="696.96017" y="126.342171" style="fill: #0000ff; fill-opacity: 0.3; stroke: #0000ff; stroke-opacity: 0.3"/>
    </g>
    <g clip-path="url(#p142a9483e7)">
     <use xlink:href="#C2_0_ed73301850" x="773.944882" y="88.441184" style="fill: #0000ff; fill-opacity: 0.679712; stroke: #0000ff; stroke-opacity: 0.679712"/>
    </g>
    <g clip-path="url(#p142a9483e7)">
     <use xlink:href="#C2_0_ed73301850" x="727.147133" y="132.310544" style="fill: #0000ff; fill-opacity: 0.761399; stroke: #0000ff; stroke-opacity: 0.761399"/>
    </g>
    <g clip-path="url(#p142a9483e7)">
     <use xlink:href="#C2_0_ed73301850" x="704.249498" y="145.323086" style="fill: #0000ff; fill-opacity: 0.804987; stroke: #0000ff; stroke-opacity: 0.804987"/>
    </g>
    <g clip-path="url(#p142a9483e7)">
     <use xlink:href="#C2_0_ed73301850" x="751.165728" y="159.704971" style="fill: #0000ff; fill-opacity: 0.824986; stroke: #0000ff; stroke-opacity: 0.824986"/>
    </g>
    <g clip-path="url(#p142a9483e7)">
     <use xlink:href="#C2_0_ed73301850" x="661.969309" y="196.373251" style="fill: #0000ff; fill-opacity: 0.857434; stroke: #0000ff; stroke-opacity: 0.857434"/>
    </g>
    <g clip-path="url(#p142a9483e7)">
     <use xlink:href="#C2_0_ed73301850" x="725.390015" y="116.780485" style="fill: #0000ff; fill-opacity: 0.915801; stroke: #0000ff; stroke-opacity: 0.915801"/>
    </g>
    <g clip-path="url(#p142a9483e7)">
     <use xlink:href="#C2_0_ed73301850" x="688.73667" y="135.976547" style="fill: #0000ff; fill-opacity: 0.949689; stroke: #0000ff; stroke-opacity: 0.949689"/>
    </g>
    <g clip-path="url(#p142a9483e7)">
     <use xlink:href="#C2_0_ed73301850" x="745.796228" y="134.000131" style="fill: #0000ff; fill-opacity: 0.992472; stroke: #0000ff; stroke-opacity: 0.992472"/>
    </g>
    <g clip-path="url(#p142a9483e7)">
     <use xlink:href="#C2_0_ed73301850" x="724.843452" y="182.578012" style="fill: #0000ff; stroke: #0000ff"/>
    </g>
   </g>
   <g id="text_65">
    <!-- 3. Find planar molecule (PC3 = 0) -->
    <g transform="translate(615.354375 7.030588) scale(0.12 -0.12)">
     <defs>
      <path id="DejaVuSans-46" d="M 628 4666 
L 3309 4666 
L 3309 4134 
L 1259 4134 
L 1259 2759 
L 3109 2759 
L 3109 2228 
L 1259 2228 
L 1259 0 
L 628 0 
L 628 4666 
z
" transform="scale(0.015625)"/>
      <path id="DejaVuSans-3d" d="M 678 2906 
L 4684 2906 
L 4684 2381 
L 678 2381 
L 678 2906 
z
M 678 1631 
L 4684 1631 
L 4684 1100 
L 678 1100 
L 678 1631 
z
" transform="scale(0.015625)"/>
     </defs>
     <use xlink:href="#DejaVuSans-33"/>
     <use xlink:href="#DejaVuSans-2e" x="63.623047"/>
     <use xlink:href="#DejaVuSans-20" x="95.410156"/>
     <use xlink:href="#DejaVuSans-46" x="127.197266"/>
     <use xlink:href="#DejaVuSans-69" x="177.466797"/>
     <use xlink:href="#DejaVuSans-6e" x="205.25"/>
     <use xlink:href="#DejaVuSans-64" x="268.628906"/>
     <use xlink:href="#DejaVuSans-20" x="332.105469"/>
     <use xlink:href="#DejaVuSans-70" x="363.892578"/>
     <use xlink:href="#DejaVuSans-6c" x="427.369141"/>
     <use xlink:href="#DejaVuSans-61" x="455.152344"/>
     <use xlink:href="#DejaVuSans-6e" x="516.431641"/>
     <use xlink:href="#DejaVuSans-61" x="579.810547"/>
     <use xlink:href="#DejaVuSans-72" x="641.089844"/>
     <use xlink:href="#DejaVuSans-20" x="682.203125"/>
     <use xlink:href="#DejaVuSans-6d" x="713.990234"/>
     <use xlink:href="#DejaVuSans-6f" x="811.402344"/>
     <use xlink:href="#DejaVuSans-6c" x="872.583984"/>
     <use xlink:href="#DejaVuSans-65" x="900.367188"/>
     <use xlink:href="#DejaVuSans-63" x="961.890625"/>
     <use xlink:href="#DejaVuSans-75" x="1016.871094"/>
     <use xlink:href="#DejaVuSans-6c" x="1080.25"/>
     <use xlink:href="#DejaVuSans-65" x="1108.033203"/>
     <use xlink:href="#DejaVuSans-20" x="1169.556641"/>
     <use xlink:href="#DejaVuSans-28" x="1201.34375"/>
     <use xlink:href="#DejaVuSans-50" x="1240.357422"/>
     <use xlink:href="#DejaVuSans-43" x="1300.660156"/>
     <use xlink:href="#DejaVuSans-33" x="1370.484375"/>
     <use xlink:href="#DejaVuSans-20" x="1434.107422"/>
     <use xlink:href="#DejaVuSans-3d" x="1465.894531"/>
     <use xlink:href="#DejaVuSans-20" x="1549.683594"/>
     <use xlink:href="#DejaVuSans-30" x="1581.470703"/>
     <use xlink:href="#DejaVuSans-29" x="1645.09375"/>
    </g>
   </g>
   <g id="Poly3DCollection_1">
    <path d="M 702.894768 104.236815 
L 693.854079 114.289956 
L 706.501699 112.117865 
L 715.520139 102.007748 
z
" clip-path="url(#p142a9483e7)" style="fill: #c37e00; fill-opacity: 0.3"/>
    <path d="M 693.854079 114.289956 
L 684.688319 124.482175 
L 697.35759 122.368863 
L 706.501699 112.117865 
z
" clip-path="url(#p142a9483e7)" style="fill: #c37e00; fill-opacity: 0.3"/>
    <path d="M 715.520139 102.007748 
L 706.501699 112.117865 
L 719.332808 109.914261 
L 728.327409 99.746565 
z
" clip-path="url(#p142a9483e7)" style="fill: #c37e00; fill-opacity: 0.3"/>
    <path d="M 684.688319 124.482175 
L 675.394874 134.816379 
L 688.085167 132.763708 
L 697.35759 122.368863 
z
" clip-path="url(#p142a9483e7)" style="fill: #c37e00; fill-opacity: 0.3"/>
    <path d="M 706.501699 112.117865 
L 697.35759 122.368863 
L 710.211954 120.224676 
L 719.332808 109.914261 
z
" clip-path="url(#p142a9483e7)" style="fill: #c37e00; fill-opacity: 0.3"/>
    <path d="M 728.327409 99.746565 
L 719.332808 109.914261 
L 732.351429 107.678455 
L 741.320538 97.452568 
z
" clip-path="url(#p142a9483e7)" style="fill: #c37e00; fill-opacity: 0.3"/>
    <path d="M 675.394874 134.816379 
L 665.971056 145.295556 
L 678.68171 143.305448 
L 688.085167 132.763708 
z
" clip-path="url(#p142a9483e7)" style="fill: #c37e00; fill-opacity: 0.3"/>
    <path d="M 697.35759 122.368863 
L 688.085167 132.763708 
L 700.962172 130.680836 
L 710.211954 120.224676 
z
" clip-path="url(#p142a9483e7)" style="fill: #c37e00; fill-opacity: 0.3"/>
    <path d="M 719.332808 109.914261 
L 710.211954 120.224676 
L 723.255499 118.048933 
L 732.351429 107.678455 
z
" clip-path="url(#p142a9483e7)" style="fill: #c37e00; fill-opacity: 0.3"/>
    <path d="M 741.320538 97.452568 
L 732.351429 107.678455 
L 745.561703 105.409734 
L 754.503602 95.125038 
z
" clip-path="url(#p142a9483e7)" style="fill: #c37e00; fill-opacity: 0.3"/>
    <path d="M 665.971056 145.295556 
L 656.414103 155.922777 
L 669.144422 153.99722 
L 678.68171 143.305448 
z
" clip-path="url(#p142a9483e7)" style="fill: #c37e00; fill-opacity: 0.3"/>
    <path d="M 688.085167 132.763708 
L 678.68171 143.305448 
L 691.580707 141.285852 
L 700.962172 130.680836 
z
" clip-path="url(#p142a9483e7)" style="fill: #c37e00; fill-opacity: 0.3"/>
    <path d="M 710.211954 120.224676 
L 700.962172 130.680836 
L 714.030039 128.567091 
L 723.255499 118.048933 
z
" clip-path="url(#p142a9483e7)" style="fill: #c37e00; fill-opacity: 0.3"/>
    <path d="M 732.351429 107.678455 
L 723.255499 118.048933 
L 736.492431 115.840932 
L 745.561703 105.409734 
z
" clip-path="url(#p142a9483e7)" style="fill: #c37e00; fill-opacity: 0.3"/>
    <path d="M 754.503602 95.125038 
L 745.561703 105.409734 
L 758.967893 103.107367 
L 767.880794 92.763233 
z
" clip-path="url(#p142a9483e7)" style="fill: #c37e00; fill-opacity: 0.3"/>
    <path d="M 656.414103 155.922777 
L 646.721174 166.701203 
L 659.470425 164.842249 
L 669.144422 153.99722 
z
" clip-path="url(#p142a9483e7)" style="fill: #c37e00; fill-opacity: 0.3"/>
    <path d="M 678.68171 143.305448 
L 669.144422 153.99722 
L 682.064727 152.042926 
L 691.580707 141.285852 
z
" clip-path="url(#p142a9483e7)" style="fill: #c37e00; fill-opacity: 0.3"/>
    <path d="M 700.962172 130.680836 
L 691.580707 141.285852 
L 704.672263 139.236106 
L 714.030039 128.567091 
z
" clip-path="url(#p142a9483e7)" style="fill: #c37e00; fill-opacity: 0.3"/>
    <path d="M 723.255499 118.048933 
L 714.030039 128.567091 
L 727.293044 126.421783 
L 736.492431 115.840932 
z
" clip-path="url(#p142a9483e7)" style="fill: #c37e00; fill-opacity: 0.3"/>
    <path d="M 745.561703 105.409734 
L 736.492431 115.840932 
L 749.927082 113.599949 
L 758.967893 103.107367 
z
" clip-path="url(#p142a9483e7)" style="fill: #c37e00; fill-opacity: 0.3"/>
    <path d="M 767.880794 92.763233 
L 758.967893 103.107367 
L 772.57439 100.770599 
L 781.456437 90.366391 
z
" clip-path="url(#p142a9483e7)" style="fill: #c37e00; fill-opacity: 0.3"/>
    <path d="M 646.721174 166.701203 
L 636.889345 177.634082 
L 649.656758 175.843855 
L 659.470425 164.842249 
z
" clip-path="url(#p142a9483e7)" style="fill: #c37e00; fill-opacity: 0.3"/>
    <path d="M 669.144422 153.99722 
L 659.470425 164.842249 
L 672.411318 162.955353 
L 682.064727 152.042926 
z
" clip-path="url(#p142a9483e7)" style="fill: #c37e00; fill-opacity: 0.3"/>
    <path d="M 691.580707 141.285852 
L 682.064727 152.042926 
L 695.179303 150.059247 
L 704.672263 139.236106 
z
" clip-path="url(#p142a9483e7)" style="fill: #c37e00; fill-opacity: 0.3"/>
    <path d="M 714.030039 128.567091 
L 704.672263 139.236106 
L 717.960723 137.155531 
L 727.293044 126.421783 
z
" clip-path="url(#p142a9483e7)" style="fill: #c37e00; fill-opacity: 0.3"/>
    <path d="M 736.492431 115.840932 
L 727.293044 126.421783 
L 740.75559 124.244198 
L 749.927082 113.599949 
z
" clip-path="url(#p142a9483e7)" style="fill: #c37e00; fill-opacity: 0.3"/>
    <path d="M 758.967893 103.107367 
L 749.927082 113.599949 
L 763.563918 111.325242 
L 772.57439 100.770599 
z
" clip-path="url(#p142a9483e7)" style="fill: #c37e00; fill-opacity: 0.3"/>
    <path d="M 781.456437 90.366391 
L 772.57439 100.770599 
L 786.385717 98.398654 
L 795.234978 87.933726 
z
" clip-path="url(#p142a9483e7)" style="fill: #c37e00; fill-opacity: 0.3"/>
    <path d="M 636.889345 177.634082 
L 626.91561 188.72476 
L 639.700376 187.005453 
L 649.656758 175.843855 
z
" clip-path="url(#p142a9483e7)" style="fill: #c37e00; fill-opacity: 0.3"/>
    <path d="M 659.470425 164.842249 
L 649.656758 175.843855 
L 662.617483 174.026522 
L 672.411318 162.955353 
z
" clip-path="url(#p142a9483e7)" style="fill: #c37e00; fill-opacity: 0.3"/>
    <path d="M 682.064727 152.042926 
L 672.411318 162.955353 
L 685.548208 161.039878 
L 695.179303 150.059247 
z
" clip-path="url(#p142a9483e7)" style="fill: #c37e00; fill-opacity: 0.3"/>
    <path d="M 704.672263 139.236106 
L 695.179303 150.059247 
L 708.492564 148.045516 
L 717.960723 137.155531 
z
" clip-path="url(#p142a9483e7)" style="fill: #c37e00; fill-opacity: 0.3"/>
    <path d="M 727.293044 126.421783 
L 717.960723 137.155531 
L 731.450562 135.043426 
L 740.75559 124.244198 
z
" clip-path="url(#p142a9483e7)" style="fill: #c37e00; fill-opacity: 0.3"/>
    <path d="M 749.927082 113.599949 
L 740.75559 124.244198 
L 754.422215 122.033604 
L 763.563918 111.325242 
z
" clip-path="url(#p142a9483e7)" style="fill: #c37e00; fill-opacity: 0.3"/>
    <path d="M 772.57439 100.770599 
L 763.563918 111.325242 
L 777.407535 109.016041 
L 786.385717 98.398654 
z
" clip-path="url(#p142a9483e7)" style="fill: #c37e00; fill-opacity: 0.3"/>
    <path d="M 795.234978 87.933726 
L 786.385717 98.398654 
L 800.406534 95.990732 
L 809.221 85.46443 
z
" clip-path="url(#p142a9483e7)" style="fill: #c37e00; fill-opacity: 0.3"/>
    <path d="M 626.91561 188.72476 
L 616.796875 199.976678 
L 629.598141 198.330558 
L 639.700376 187.005453 
z
" clip-path="url(#p142a9483e7)" style="fill: #c37e00; fill-opacity: 0.3"/>
    <path d="M 649.656758 175.843855 
L 639.700376 187.005453 
L 652.680133 185.259922 
L 662.617483 174.026522 
z
" clip-path="url(#p142a9483e7)" style="fill: #c37e00; fill-opacity: 0.3"/>
    <path d="M 672.411318 162.955353 
L 662.617483 174.026522 
L 675.775942 172.181463 
L 685.548208 161.039878 
z
" clip-path="url(#p142a9483e7)" style="fill: #c37e00; fill-opacity: 0.3"/>
    <path d="M 695.179303 150.059247 
L 685.548208 161.039878 
L 698.88558 159.095172 
L 708.492564 148.045516 
z
" clip-path="url(#p142a9483e7)" style="fill: #c37e00; fill-opacity: 0.3"/>
    <path d="M 717.960723 137.155531 
L 708.492564 148.045516 
L 722.00906 146.001043 
L 731.450562 135.043426 
z
" clip-path="url(#p142a9483e7)" style="fill: #c37e00; fill-opacity: 0.3"/>
    <path d="M 740.75559 124.244198 
L 731.450562 135.043426 
L 745.146394 132.899069 
L 754.422215 122.033604 
z
" clip-path="url(#p142a9483e7)" style="fill: #c37e00; fill-opacity: 0.3"/>
    <path d="M 763.563918 111.325242 
L 754.422215 122.033604 
L 768.297595 119.789243 
L 777.407535 109.016041 
z
" clip-path="url(#p142a9483e7)" style="fill: #c37e00; fill-opacity: 0.3"/>
    <path d="M 786.385717 98.398654 
L 777.407535 109.016041 
L 791.462674 106.671558 
L 800.406534 95.990732 
z
" clip-path="url(#p142a9483e7)" style="fill: #c37e00; fill-opacity: 0.3"/>
    <path d="M 809.221 85.46443 
L 800.406534 95.990732 
L 814.641645 93.546006 
L 823.419225 82.957668 
z
" clip-path="url(#p142a9483e7)" style="fill: #c37e00; fill-opacity: 0.3"/>
    <path d="M 639.700376 187.005453 
L 629.598141 198.330558 
L 642.596091 196.659146 
L 652.680133 185.259922 
z
" clip-path="url(#p142a9483e7)" style="fill: #c37e00; fill-opacity: 0.3"/>
    <path d="M 662.617483 174.026522 
L 652.680133 185.259922 
L 665.859378 183.487564 
L 675.775942 172.181463 
z
" clip-path="url(#p142a9483e7)" style="fill: #c37e00; fill-opacity: 0.3"/>
    <path d="M 685.548208 161.039878 
L 675.775942 172.181463 
L 689.136696 170.308038 
L 698.88558 159.095172 
z
" clip-path="url(#p142a9483e7)" style="fill: #c37e00; fill-opacity: 0.3"/>
    <path d="M 708.492564 148.045516 
L 698.88558 159.095172 
L 712.42806 157.120559 
L 722.00906 146.001043 
z
" clip-path="url(#p142a9483e7)" style="fill: #c37e00; fill-opacity: 0.3"/>
    <path d="M 731.450562 135.043426 
L 722.00906 146.001043 
L 735.733482 143.925121 
L 745.146394 132.899069 
z
" clip-path="url(#p142a9483e7)" style="fill: #c37e00; fill-opacity: 0.3"/>
    <path d="M 754.422215 122.033604 
L 745.146394 132.899069 
L 759.052974 130.721715 
L 768.297595 119.789243 
z
" clip-path="url(#p142a9483e7)" style="fill: #c37e00; fill-opacity: 0.3"/>
    <path d="M 777.407535 109.016041 
L 768.297595 119.789243 
L 782.386549 117.510337 
L 791.462674 106.671558 
z
" clip-path="url(#p142a9483e7)" style="fill: #c37e00; fill-opacity: 0.3"/>
    <path d="M 800.406534 95.990732 
L 791.462674 106.671558 
L 805.73422 104.290977 
L 814.641645 93.546006 
z
" clip-path="url(#p142a9483e7)" style="fill: #c37e00; fill-opacity: 0.3"/>
    <path d="M 652.680133 185.259922 
L 642.596091 196.659146 
L 655.795295 194.961855 
L 665.859378 183.487564 
z
" clip-path="url(#p142a9483e7)" style="fill: #c37e00; fill-opacity: 0.3"/>
    <path d="M 675.775942 172.181463 
L 665.859378 183.487564 
L 679.242745 181.687756 
L 689.136696 170.308038 
z
" clip-path="url(#p142a9483e7)" style="fill: #c37e00; fill-opacity: 0.3"/>
    <path d="M 698.88558 159.095172 
L 689.136696 170.308038 
L 702.704447 168.405588 
L 712.42806 157.120559 
z
" clip-path="url(#p142a9483e7)" style="fill: #c37e00; fill-opacity: 0.3"/>
    <path d="M 722.00906 146.001043 
L 712.42806 157.120559 
L 726.180415 155.115344 
L 735.733482 143.925121 
z
" clip-path="url(#p142a9483e7)" style="fill: #c37e00; fill-opacity: 0.3"/>
    <path d="M 745.146394 132.899069 
L 735.733482 143.925121 
L 749.670663 141.817016 
L 759.052974 130.721715 
z
" clip-path="url(#p142a9483e7)" style="fill: #c37e00; fill-opacity: 0.3"/>
    <path d="M 768.297595 119.789243 
L 759.052974 130.721715 
L 773.175202 128.510597 
L 782.386549 117.510337 
z
" clip-path="url(#p142a9483e7)" style="fill: #c37e00; fill-opacity: 0.3"/>
    <path d="M 791.462674 106.671558 
L 782.386549 117.510337 
L 796.694046 115.19608 
L 805.73422 104.290977 
z
" clip-path="url(#p142a9483e7)" style="fill: #c37e00; fill-opacity: 0.3"/>
    <path d="M 665.859378 183.487564 
L 655.795295 194.961855 
L 669.200463 193.23808 
L 679.242745 181.687756 
z
" clip-path="url(#p142a9483e7)" style="fill: #c37e00; fill-opacity: 0.3"/>
    <path d="M 689.136696 170.308038 
L 679.242745 181.687756 
L 692.835013 179.859855 
L 702.704447 168.405588 
z
" clip-path="url(#p142a9483e7)" style="fill: #c37e00; fill-opacity: 0.3"/>
    <path d="M 712.42806 157.120559 
L 702.704447 168.405588 
L 716.484042 166.473435 
L 726.180415 155.115344 
z
" clip-path="url(#p142a9483e7)" style="fill: #c37e00; fill-opacity: 0.3"/>
    <path d="M 735.733482 143.925121 
L 726.180415 155.115344 
L 740.147563 153.078811 
L 749.670663 141.817016 
z
" clip-path="url(#p142a9483e7)" style="fill: #c37e00; fill-opacity: 0.3"/>
    <path d="M 759.052974 130.721715 
L 749.670663 141.817016 
L 763.825589 139.675977 
L 773.175202 128.510597 
z
" clip-path="url(#p142a9483e7)" style="fill: #c37e00; fill-opacity: 0.3"/>
    <path d="M 782.386549 117.510337 
L 773.175202 128.510597 
L 787.518135 126.264924 
L 796.694046 115.19608 
z
" clip-path="url(#p142a9483e7)" style="fill: #c37e00; fill-opacity: 0.3"/>
    <path d="M 679.242745 181.687756 
L 669.200463 193.23808 
L 682.816452 191.487194 
L 692.835013 179.859855 
z
" clip-path="url(#p142a9483e7)" style="fill: #c37e00; fill-opacity: 0.3"/>
    <path d="M 702.704447 168.405588 
L 692.835013 179.859855 
L 706.641111 178.003197 
L 716.484042 166.473435 
z
" clip-path="url(#p142a9483e7)" style="fill: #c37e00; fill-opacity: 0.3"/>
    <path d="M 726.180415 155.115344 
L 716.484042 166.473435 
L 730.480481 164.510875 
L 740.147563 153.078811 
z
" clip-path="url(#p142a9483e7)" style="fill: #c37e00; fill-opacity: 0.3"/>
    <path d="M 749.670663 141.817016 
L 740.147563 153.078811 
L 754.334574 151.010219 
L 763.825589 139.675977 
z
" clip-path="url(#p142a9483e7)" style="fill: #c37e00; fill-opacity: 0.3"/>
    <path d="M 773.175202 128.510597 
L 763.825589 139.675977 
L 778.203405 137.501223 
L 787.518135 126.264924 
z
" clip-path="url(#p142a9483e7)" style="fill: #c37e00; fill-opacity: 0.3"/>
    <path d="M 692.835013 179.859855 
L 682.816452 191.487194 
L 696.648277 189.708554 
L 706.641111 178.003197 
z
" clip-path="url(#p142a9483e7)" style="fill: #c37e00; fill-opacity: 0.3"/>
    <path d="M 716.484042 166.473435 
L 706.641111 178.003197 
L 720.666127 176.1171 
L 730.480481 164.510875 
z
" clip-path="url(#p142a9483e7)" style="fill: #c37e00; fill-opacity: 0.3"/>
    <path d="M 740.147563 153.078811 
L 730.480481 164.510875 
L 744.698924 162.517186 
L 754.334574 151.010219 
z
" clip-path="url(#p142a9483e7)" style="fill: #c37e00; fill-opacity: 0.3"/>
    <path d="M 763.825589 139.675977 
L 754.334574 151.010219 
L 768.746682 148.908807 
L 778.203405 137.501223 
z
" clip-path="url(#p142a9483e7)" style="fill: #c37e00; fill-opacity: 0.3"/>
    <path d="M 706.641111 178.003197 
L 696.648277 189.708554 
L 710.70111 187.901495 
L 720.666127 176.1171 
z
" clip-path="url(#p142a9483e7)" style="fill: #c37e00; fill-opacity: 0.3"/>
    <path d="M 730.480481 164.510875 
L 720.666127 176.1171 
L 734.915308 174.200856 
L 744.698924 162.517186 
z
" clip-path="url(#p142a9483e7)" style="fill: #c37e00; fill-opacity: 0.3"/>
    <path d="M 754.334574 151.010219 
L 744.698924 162.517186 
L 759.144696 160.491622 
L 768.746682 148.908807 
z
" clip-path="url(#p142a9483e7)" style="fill: #c37e00; fill-opacity: 0.3"/>
    <path d="M 720.666127 176.1171 
L 710.70111 187.901495 
L 724.980291 186.06533 
L 734.915308 174.200856 
z
" clip-path="url(#p142a9483e7)" style="fill: #c37e00; fill-opacity: 0.3"/>
    <path d="M 744.698924 162.517186 
L 734.915308 174.200856 
L 749.394072 172.253738 
L 759.144696 160.491622 
z
" clip-path="url(#p142a9483e7)" style="fill: #c37e00; fill-opacity: 0.3"/>
    <path d="M 734.915308 174.200856 
L 724.980291 186.06533 
L 739.491332 184.199349 
L 749.394072 172.253738 
z
" clip-path="url(#p142a9483e7)" style="fill: #c37e00; fill-opacity: 0.3"/>
   </g>
  </g>
 </g>
 <defs>
  <clipPath id="p0344203779">
   <rect x="15.515294" y="13.030588" width="264.169412" height="264.169412"/>
  </clipPath>
  <clipPath id="p56ce629524">
   <rect x="299.915294" y="13.030588" width="264.169412" height="264.169412"/>
  </clipPath>
  <clipPath id="p142a9483e7">
   <rect x="584.315294" y="13.030588" width="264.169412" height="264.169412"/>
  </clipPath>
 </defs>
</svg>
